<mxfile host="app.diagrams.net" agent="Mozilla/5.0 (Windows NT 10.0; Win64; x64) AppleWebKit/537.36 (KHTML, like Gecko) Chrome/141.0.0.0 Safari/537.36 Edg/141.0.0.0" version="28.2.8">
  <diagram id="C5RBs43oDa-KdzZeNtuy" name="Page-1">
    <mxGraphModel dx="1862" dy="2332" grid="1" gridSize="10" guides="1" tooltips="1" connect="1" arrows="1" fold="1" page="1" pageScale="1" pageWidth="827" pageHeight="1169" math="0" shadow="0">
      <root>
        <mxCell id="WIyWlLk6GJQsqaUBKTNV-0" />
        <mxCell id="WIyWlLk6GJQsqaUBKTNV-1" parent="WIyWlLk6GJQsqaUBKTNV-0" />
        <mxCell id="D_atLNyOjQKJW8hiToG2-0" value="Usuario (Registro)" style="swimlane;fontStyle=2;align=center;verticalAlign=top;childLayout=stackLayout;horizontal=1;startSize=26;horizontalStack=0;resizeParent=1;resizeLast=0;collapsible=1;marginBottom=0;rounded=0;shadow=0;strokeWidth=1;fillColor=#dae8fc;strokeColor=#6c8ebf;" parent="WIyWlLk6GJQsqaUBKTNV-1" vertex="1">
          <mxGeometry x="1280" y="-630" width="220" height="166" as="geometry">
            <mxRectangle x="230" y="140" width="160" height="26" as="alternateBounds" />
          </mxGeometry>
        </mxCell>
        <mxCell id="D_atLNyOjQKJW8hiToG2-1" value="+ email: str" style="text;strokeColor=#6c8ebf;fillColor=#dae8fc;align=left;verticalAlign=top;spacingLeft=4;spacingRight=4;overflow=hidden;rotatable=0;points=[[0,0.5],[1,0.5]];portConstraint=eastwest;whiteSpace=wrap;html=1;" parent="D_atLNyOjQKJW8hiToG2-0" vertex="1">
          <mxGeometry y="26" width="220" height="26" as="geometry" />
        </mxCell>
        <mxCell id="D_atLNyOjQKJW8hiToG2-2" value="+ pass: str" style="text;strokeColor=#6c8ebf;fillColor=#dae8fc;align=left;verticalAlign=top;spacingLeft=4;spacingRight=4;overflow=hidden;rotatable=0;points=[[0,0.5],[1,0.5]];portConstraint=eastwest;whiteSpace=wrap;html=1;" parent="D_atLNyOjQKJW8hiToG2-0" vertex="1">
          <mxGeometry y="52" width="220" height="26" as="geometry" />
        </mxCell>
        <mxCell id="D_atLNyOjQKJW8hiToG2-3" value="" style="line;html=1;strokeWidth=1;align=left;verticalAlign=middle;spacingTop=-1;spacingLeft=3;spacingRight=3;rotatable=0;labelPosition=right;points=[];portConstraint=eastwest;fillColor=#dae8fc;strokeColor=#6c8ebf;" parent="D_atLNyOjQKJW8hiToG2-0" vertex="1">
          <mxGeometry y="78" width="220" height="8" as="geometry" />
        </mxCell>
        <mxCell id="D_atLNyOjQKJW8hiToG2-4" value="+ registrar(email, pass): Response" style="text;strokeColor=#6c8ebf;fillColor=#dae8fc;align=left;verticalAlign=top;spacingLeft=4;spacingRight=4;overflow=hidden;rotatable=0;points=[[0,0.5],[1,0.5]];portConstraint=eastwest;whiteSpace=wrap;html=1;" parent="D_atLNyOjQKJW8hiToG2-0" vertex="1">
          <mxGeometry y="86" width="220" height="24" as="geometry" />
        </mxCell>
        <mxCell id="D_atLNyOjQKJW8hiToG2-5" value="&lt;div&gt;+ validarEmail(email): Response&lt;/div&gt;&lt;div&gt;&lt;br&gt;&lt;/div&gt;" style="text;strokeColor=#6c8ebf;fillColor=#dae8fc;align=left;verticalAlign=top;spacingLeft=4;spacingRight=4;overflow=hidden;rotatable=0;points=[[0,0.5],[1,0.5]];portConstraint=eastwest;whiteSpace=wrap;html=1;" parent="D_atLNyOjQKJW8hiToG2-0" vertex="1">
          <mxGeometry y="110" width="220" height="20" as="geometry" />
        </mxCell>
        <mxCell id="D_atLNyOjQKJW8hiToG2-6" value="+ validarPassword(pass): Response" style="text;strokeColor=#6c8ebf;fillColor=#dae8fc;align=left;verticalAlign=top;spacingLeft=4;spacingRight=4;overflow=hidden;rotatable=0;points=[[0,0.5],[1,0.5]];portConstraint=eastwest;whiteSpace=wrap;html=1;" parent="D_atLNyOjQKJW8hiToG2-0" vertex="1">
          <mxGeometry y="130" width="220" height="26" as="geometry" />
        </mxCell>
        <mxCell id="D_atLNyOjQKJW8hiToG2-7" value="Usuario (Inicio Sesion)" style="swimlane;fontStyle=2;align=center;verticalAlign=top;childLayout=stackLayout;horizontal=1;startSize=26;horizontalStack=0;resizeParent=1;resizeLast=0;collapsible=1;marginBottom=0;rounded=0;shadow=0;strokeWidth=1;fillColor=#dae8fc;strokeColor=#6c8ebf;" parent="WIyWlLk6GJQsqaUBKTNV-1" vertex="1">
          <mxGeometry x="961" y="-630" width="249" height="338" as="geometry">
            <mxRectangle x="230" y="140" width="160" height="26" as="alternateBounds" />
          </mxGeometry>
        </mxCell>
        <mxCell id="D_atLNyOjQKJW8hiToG2-8" value="+ email: str" style="text;strokeColor=#6c8ebf;fillColor=#dae8fc;align=left;verticalAlign=top;spacingLeft=4;spacingRight=4;overflow=hidden;rotatable=0;points=[[0,0.5],[1,0.5]];portConstraint=eastwest;whiteSpace=wrap;html=1;" parent="D_atLNyOjQKJW8hiToG2-7" vertex="1">
          <mxGeometry y="26" width="249" height="26" as="geometry" />
        </mxCell>
        <mxCell id="D_atLNyOjQKJW8hiToG2-9" value="+ pass: str" style="text;strokeColor=#6c8ebf;fillColor=#dae8fc;align=left;verticalAlign=top;spacingLeft=4;spacingRight=4;overflow=hidden;rotatable=0;points=[[0,0.5],[1,0.5]];portConstraint=eastwest;whiteSpace=wrap;html=1;" parent="D_atLNyOjQKJW8hiToG2-7" vertex="1">
          <mxGeometry y="52" width="249" height="26" as="geometry" />
        </mxCell>
        <mxCell id="D_atLNyOjQKJW8hiToG2-10" value="+ intentosfallidos: int" style="text;strokeColor=#6c8ebf;fillColor=#dae8fc;align=left;verticalAlign=top;spacingLeft=4;spacingRight=4;overflow=hidden;rotatable=0;points=[[0,0.5],[1,0.5]];portConstraint=eastwest;whiteSpace=wrap;html=1;" parent="D_atLNyOjQKJW8hiToG2-7" vertex="1">
          <mxGeometry y="78" width="249" height="26" as="geometry" />
        </mxCell>
        <mxCell id="D_atLNyOjQKJW8hiToG2-11" value="+ bloqueadohasta: timestamp" style="text;strokeColor=#6c8ebf;fillColor=#dae8fc;align=left;verticalAlign=top;spacingLeft=4;spacingRight=4;overflow=hidden;rotatable=0;points=[[0,0.5],[1,0.5]];portConstraint=eastwest;whiteSpace=wrap;html=1;" parent="D_atLNyOjQKJW8hiToG2-7" vertex="1">
          <mxGeometry y="104" width="249" height="26" as="geometry" />
        </mxCell>
        <mxCell id="D_atLNyOjQKJW8hiToG2-12" value="+ ultimactividad: timestamp" style="text;strokeColor=#6c8ebf;fillColor=#dae8fc;align=left;verticalAlign=top;spacingLeft=4;spacingRight=4;overflow=hidden;rotatable=0;points=[[0,0.5],[1,0.5]];portConstraint=eastwest;whiteSpace=wrap;html=1;" parent="D_atLNyOjQKJW8hiToG2-7" vertex="1">
          <mxGeometry y="130" width="249" height="20" as="geometry" />
        </mxCell>
        <mxCell id="D_atLNyOjQKJW8hiToG2-13" value="" style="line;html=1;strokeWidth=1;align=left;verticalAlign=middle;spacingTop=-1;spacingLeft=3;spacingRight=3;rotatable=0;labelPosition=right;points=[];portConstraint=eastwest;fillColor=#dae8fc;strokeColor=#6c8ebf;" parent="D_atLNyOjQKJW8hiToG2-7" vertex="1">
          <mxGeometry y="150" width="249" height="8" as="geometry" />
        </mxCell>
        <mxCell id="D_atLNyOjQKJW8hiToG2-14" value="+ registrar(email, pass): Response" style="text;strokeColor=#6c8ebf;fillColor=#dae8fc;align=left;verticalAlign=top;spacingLeft=4;spacingRight=4;overflow=hidden;rotatable=0;points=[[0,0.5],[1,0.5]];portConstraint=eastwest;whiteSpace=wrap;html=1;" parent="D_atLNyOjQKJW8hiToG2-7" vertex="1">
          <mxGeometry y="158" width="249" height="24" as="geometry" />
        </mxCell>
        <mxCell id="D_atLNyOjQKJW8hiToG2-15" value="&lt;div&gt;+ validarEmail(email): Response&lt;/div&gt;&lt;div&gt;&lt;br&gt;&lt;/div&gt;" style="text;strokeColor=#6c8ebf;fillColor=#dae8fc;align=left;verticalAlign=top;spacingLeft=4;spacingRight=4;overflow=hidden;rotatable=0;points=[[0,0.5],[1,0.5]];portConstraint=eastwest;whiteSpace=wrap;html=1;" parent="D_atLNyOjQKJW8hiToG2-7" vertex="1">
          <mxGeometry y="182" width="249" height="20" as="geometry" />
        </mxCell>
        <mxCell id="D_atLNyOjQKJW8hiToG2-16" value="+ validarPassword(pass): Response" style="text;strokeColor=#6c8ebf;fillColor=#dae8fc;align=left;verticalAlign=top;spacingLeft=4;spacingRight=4;overflow=hidden;rotatable=0;points=[[0,0.5],[1,0.5]];portConstraint=eastwest;whiteSpace=wrap;html=1;" parent="D_atLNyOjQKJW8hiToG2-7" vertex="1">
          <mxGeometry y="202" width="249" height="26" as="geometry" />
        </mxCell>
        <mxCell id="D_atLNyOjQKJW8hiToG2-17" value="+ incrementointentos(intentosfallidos): void" style="text;strokeColor=#6c8ebf;fillColor=#dae8fc;align=left;verticalAlign=top;spacingLeft=4;spacingRight=4;overflow=hidden;rotatable=0;points=[[0,0.5],[1,0.5]];portConstraint=eastwest;whiteSpace=wrap;html=1;" parent="D_atLNyOjQKJW8hiToG2-7" vertex="1">
          <mxGeometry y="228" width="249" height="26" as="geometry" />
        </mxCell>
        <mxCell id="D_atLNyOjQKJW8hiToG2-18" value="+ desbloquear(bloqueo): void" style="text;strokeColor=#6c8ebf;fillColor=#dae8fc;align=left;verticalAlign=top;spacingLeft=4;spacingRight=4;overflow=hidden;rotatable=0;points=[[0,0.5],[1,0.5]];portConstraint=eastwest;whiteSpace=wrap;html=1;" parent="D_atLNyOjQKJW8hiToG2-7" vertex="1">
          <mxGeometry y="254" width="249" height="26" as="geometry" />
        </mxCell>
        <mxCell id="D_atLNyOjQKJW8hiToG2-19" value="+ actualizaractividad(ultact): void" style="text;strokeColor=#6c8ebf;fillColor=#dae8fc;align=left;verticalAlign=top;spacingLeft=4;spacingRight=4;overflow=hidden;rotatable=0;points=[[0,0.5],[1,0.5]];portConstraint=eastwest;whiteSpace=wrap;html=1;" parent="D_atLNyOjQKJW8hiToG2-7" vertex="1">
          <mxGeometry y="280" width="249" height="26" as="geometry" />
        </mxCell>
        <mxCell id="D_atLNyOjQKJW8hiToG2-20" value="+ sesionexpirada():bool" style="text;strokeColor=#6c8ebf;fillColor=#dae8fc;align=left;verticalAlign=top;spacingLeft=4;spacingRight=4;overflow=hidden;rotatable=0;points=[[0,0.5],[1,0.5]];portConstraint=eastwest;whiteSpace=wrap;html=1;" parent="D_atLNyOjQKJW8hiToG2-7" vertex="1">
          <mxGeometry y="306" width="249" height="26" as="geometry" />
        </mxCell>
        <mxCell id="D_atLNyOjQKJW8hiToG2-21" value="Usuario (Recuperación Contraseña)" style="swimlane;fontStyle=2;align=center;verticalAlign=top;childLayout=stackLayout;horizontal=1;startSize=26;horizontalStack=0;resizeParent=1;resizeLast=0;collapsible=1;marginBottom=0;rounded=0;shadow=0;strokeWidth=1;fillColor=#dae8fc;strokeColor=#6c8ebf;" parent="WIyWlLk6GJQsqaUBKTNV-1" vertex="1">
          <mxGeometry x="660" y="-630" width="249" height="216" as="geometry">
            <mxRectangle x="230" y="140" width="160" height="26" as="alternateBounds" />
          </mxGeometry>
        </mxCell>
        <mxCell id="D_atLNyOjQKJW8hiToG2-22" value="+ codigo: str" style="text;strokeColor=#6c8ebf;fillColor=#dae8fc;align=left;verticalAlign=top;spacingLeft=4;spacingRight=4;overflow=hidden;rotatable=0;points=[[0,0.5],[1,0.5]];portConstraint=eastwest;whiteSpace=wrap;html=1;" parent="D_atLNyOjQKJW8hiToG2-21" vertex="1">
          <mxGeometry y="26" width="249" height="26" as="geometry" />
        </mxCell>
        <mxCell id="D_atLNyOjQKJW8hiToG2-23" value="+ ultimaActividad: timestamp" style="text;strokeColor=#6c8ebf;fillColor=#dae8fc;align=left;verticalAlign=top;spacingLeft=4;spacingRight=4;overflow=hidden;rotatable=0;points=[[0,0.5],[1,0.5]];portConstraint=eastwest;whiteSpace=wrap;html=1;" parent="D_atLNyOjQKJW8hiToG2-21" vertex="1">
          <mxGeometry y="52" width="249" height="28" as="geometry" />
        </mxCell>
        <mxCell id="D_atLNyOjQKJW8hiToG2-24" value="+ tokenExpira: timestamp" style="text;strokeColor=#6c8ebf;fillColor=#dae8fc;align=left;verticalAlign=top;spacingLeft=4;spacingRight=4;overflow=hidden;rotatable=0;points=[[0,0.5],[1,0.5]];portConstraint=eastwest;whiteSpace=wrap;html=1;" parent="D_atLNyOjQKJW8hiToG2-21" vertex="1">
          <mxGeometry y="80" width="249" height="26" as="geometry" />
        </mxCell>
        <mxCell id="D_atLNyOjQKJW8hiToG2-25" value="" style="line;html=1;strokeWidth=1;align=left;verticalAlign=middle;spacingTop=-1;spacingLeft=3;spacingRight=3;rotatable=0;labelPosition=right;points=[];portConstraint=eastwest;fillColor=#dae8fc;strokeColor=#6c8ebf;" parent="D_atLNyOjQKJW8hiToG2-21" vertex="1">
          <mxGeometry y="106" width="249" height="8" as="geometry" />
        </mxCell>
        <mxCell id="D_atLNyOjQKJW8hiToG2-26" value="+ registrar(codigo): Response" style="text;strokeColor=#6c8ebf;fillColor=#dae8fc;align=left;verticalAlign=top;spacingLeft=4;spacingRight=4;overflow=hidden;rotatable=0;points=[[0,0.5],[1,0.5]];portConstraint=eastwest;whiteSpace=wrap;html=1;" parent="D_atLNyOjQKJW8hiToG2-21" vertex="1">
          <mxGeometry y="114" width="249" height="24" as="geometry" />
        </mxCell>
        <mxCell id="D_atLNyOjQKJW8hiToG2-27" value="+ validarcodigo(codigo): Response" style="text;strokeColor=#6c8ebf;fillColor=#dae8fc;align=left;verticalAlign=top;spacingLeft=4;spacingRight=4;overflow=hidden;rotatable=0;points=[[0,0.5],[1,0.5]];portConstraint=eastwest;whiteSpace=wrap;html=1;" parent="D_atLNyOjQKJW8hiToG2-21" vertex="1">
          <mxGeometry y="138" width="249" height="26" as="geometry" />
        </mxCell>
        <mxCell id="D_atLNyOjQKJW8hiToG2-28" value="+ actualizaractividad(ultimaActividad): void" style="text;strokeColor=#6c8ebf;fillColor=#dae8fc;align=left;verticalAlign=top;spacingLeft=4;spacingRight=4;overflow=hidden;rotatable=0;points=[[0,0.5],[1,0.5]];portConstraint=eastwest;whiteSpace=wrap;html=1;" parent="D_atLNyOjQKJW8hiToG2-21" vertex="1">
          <mxGeometry y="164" width="249" height="26" as="geometry" />
        </mxCell>
        <mxCell id="D_atLNyOjQKJW8hiToG2-29" value="+ expiracionEnlace(): void" style="text;strokeColor=#6c8ebf;fillColor=#dae8fc;align=left;verticalAlign=top;spacingLeft=4;spacingRight=4;overflow=hidden;rotatable=0;points=[[0,0.5],[1,0.5]];portConstraint=eastwest;whiteSpace=wrap;html=1;" parent="D_atLNyOjQKJW8hiToG2-21" vertex="1">
          <mxGeometry y="190" width="249" height="26" as="geometry" />
        </mxCell>
        <mxCell id="D_atLNyOjQKJW8hiToG2-30" value="Usuario Cliente" style="swimlane;fontStyle=2;align=center;verticalAlign=top;childLayout=stackLayout;horizontal=1;startSize=26;horizontalStack=0;resizeParent=1;resizeLast=0;collapsible=1;marginBottom=0;rounded=0;shadow=0;strokeWidth=1;fillColor=#e1d5e7;strokeColor=#9673a6;" parent="WIyWlLk6GJQsqaUBKTNV-1" vertex="1">
          <mxGeometry x="1295" y="-240" width="130" height="80" as="geometry">
            <mxRectangle x="230" y="140" width="160" height="26" as="alternateBounds" />
          </mxGeometry>
        </mxCell>
        <mxCell id="D_atLNyOjQKJW8hiToG2-31" value="+ email: str" style="text;strokeColor=#9673a6;fillColor=#e1d5e7;align=left;verticalAlign=top;spacingLeft=4;spacingRight=4;overflow=hidden;rotatable=0;points=[[0,0.5],[1,0.5]];portConstraint=eastwest;whiteSpace=wrap;html=1;" parent="D_atLNyOjQKJW8hiToG2-30" vertex="1">
          <mxGeometry y="26" width="130" height="26" as="geometry" />
        </mxCell>
        <mxCell id="D_atLNyOjQKJW8hiToG2-32" value="+ pass: str" style="text;strokeColor=#9673a6;fillColor=#e1d5e7;align=left;verticalAlign=top;spacingLeft=4;spacingRight=4;overflow=hidden;rotatable=0;points=[[0,0.5],[1,0.5]];portConstraint=eastwest;whiteSpace=wrap;html=1;" parent="D_atLNyOjQKJW8hiToG2-30" vertex="1">
          <mxGeometry y="52" width="130" height="26" as="geometry" />
        </mxCell>
        <mxCell id="D_atLNyOjQKJW8hiToG2-33" value="Usuario Administrador" style="swimlane;fontStyle=2;align=center;verticalAlign=top;childLayout=stackLayout;horizontal=1;startSize=26;horizontalStack=0;resizeParent=1;resizeLast=0;collapsible=1;marginBottom=0;rounded=0;shadow=0;strokeWidth=1;fillColor=#f5f5f5;strokeColor=#666666;fontColor=#333333;" parent="WIyWlLk6GJQsqaUBKTNV-1" vertex="1">
          <mxGeometry x="760" y="-240" width="220" height="170" as="geometry">
            <mxRectangle x="230" y="140" width="160" height="26" as="alternateBounds" />
          </mxGeometry>
        </mxCell>
        <mxCell id="D_atLNyOjQKJW8hiToG2-34" value="+ email: str" style="text;strokeColor=#666666;fillColor=#f5f5f5;align=left;verticalAlign=top;spacingLeft=4;spacingRight=4;overflow=hidden;rotatable=0;points=[[0,0.5],[1,0.5]];portConstraint=eastwest;whiteSpace=wrap;html=1;fontColor=#333333;" parent="D_atLNyOjQKJW8hiToG2-33" vertex="1">
          <mxGeometry y="26" width="220" height="26" as="geometry" />
        </mxCell>
        <mxCell id="D_atLNyOjQKJW8hiToG2-35" value="+ pass: str" style="text;strokeColor=#666666;fillColor=#f5f5f5;align=left;verticalAlign=top;spacingLeft=4;spacingRight=4;overflow=hidden;rotatable=0;points=[[0,0.5],[1,0.5]];portConstraint=eastwest;whiteSpace=wrap;html=1;fontColor=#333333;" parent="D_atLNyOjQKJW8hiToG2-33" vertex="1">
          <mxGeometry y="52" width="220" height="28" as="geometry" />
        </mxCell>
        <mxCell id="CIufKCW6qUsmyP6EedrH-0" value="" style="line;html=1;strokeWidth=1;align=left;verticalAlign=middle;spacingTop=-1;spacingLeft=3;spacingRight=3;rotatable=0;labelPosition=right;points=[];portConstraint=eastwest;fillColor=#f5f5f5;fontColor=#333333;strokeColor=#666666;" vertex="1" parent="D_atLNyOjQKJW8hiToG2-33">
          <mxGeometry y="80" width="220" height="8" as="geometry" />
        </mxCell>
        <mxCell id="D_atLNyOjQKJW8hiToG2-37" value="+ eliminar(email, pass): Response" style="text;strokeColor=#666666;fillColor=#f5f5f5;align=left;verticalAlign=top;spacingLeft=4;spacingRight=4;overflow=hidden;rotatable=0;points=[[0,0.5],[1,0.5]];portConstraint=eastwest;whiteSpace=wrap;html=1;fontColor=#333333;" parent="D_atLNyOjQKJW8hiToG2-33" vertex="1">
          <mxGeometry y="88" width="220" height="32" as="geometry" />
        </mxCell>
        <mxCell id="D_atLNyOjQKJW8hiToG2-38" value="+ registrar(email, pass): Response" style="text;strokeColor=#666666;fillColor=#f5f5f5;align=left;verticalAlign=top;spacingLeft=4;spacingRight=4;overflow=hidden;rotatable=0;points=[[0,0.5],[1,0.5]];portConstraint=eastwest;whiteSpace=wrap;html=1;fontColor=#333333;" parent="D_atLNyOjQKJW8hiToG2-33" vertex="1">
          <mxGeometry y="120" width="220" height="24" as="geometry" />
        </mxCell>
        <mxCell id="D_atLNyOjQKJW8hiToG2-39" value="+ bloquear(email): Response" style="text;strokeColor=#666666;fillColor=#f5f5f5;align=left;verticalAlign=top;spacingLeft=4;spacingRight=4;overflow=hidden;rotatable=0;points=[[0,0.5],[1,0.5]];portConstraint=eastwest;whiteSpace=wrap;html=1;fontColor=#333333;" parent="D_atLNyOjQKJW8hiToG2-33" vertex="1">
          <mxGeometry y="144" width="220" height="24" as="geometry" />
        </mxCell>
        <mxCell id="D_atLNyOjQKJW8hiToG2-40" value="Filtro Categoria" style="swimlane;fontStyle=2;align=center;verticalAlign=top;childLayout=stackLayout;horizontal=1;startSize=26;horizontalStack=0;resizeParent=1;resizeLast=0;collapsible=1;marginBottom=0;rounded=0;shadow=0;strokeWidth=1;fillColor=#e1d5e7;strokeColor=#9673a6;" parent="WIyWlLk6GJQsqaUBKTNV-1" vertex="1">
          <mxGeometry x="1200" y="-30" width="200" height="130" as="geometry">
            <mxRectangle x="230" y="140" width="160" height="26" as="alternateBounds" />
          </mxGeometry>
        </mxCell>
        <mxCell id="D_atLNyOjQKJW8hiToG2-41" value="+ categoria: str" style="text;strokeColor=#9673a6;fillColor=#e1d5e7;align=left;verticalAlign=top;spacingLeft=4;spacingRight=4;overflow=hidden;rotatable=0;points=[[0,0.5],[1,0.5]];portConstraint=eastwest;whiteSpace=wrap;html=1;" parent="D_atLNyOjQKJW8hiToG2-40" vertex="1">
          <mxGeometry y="26" width="200" height="26" as="geometry" />
        </mxCell>
        <mxCell id="D_atLNyOjQKJW8hiToG2-42" value="+ categorias: str" style="text;strokeColor=#9673a6;fillColor=#e1d5e7;align=left;verticalAlign=top;spacingLeft=4;spacingRight=4;overflow=hidden;rotatable=0;points=[[0,0.5],[1,0.5]];portConstraint=eastwest;whiteSpace=wrap;html=1;" parent="D_atLNyOjQKJW8hiToG2-40" vertex="1">
          <mxGeometry y="52" width="200" height="28" as="geometry" />
        </mxCell>
        <mxCell id="D_atLNyOjQKJW8hiToG2-43" value="" style="line;html=1;strokeWidth=1;align=left;verticalAlign=middle;spacingTop=-1;spacingLeft=3;spacingRight=3;rotatable=0;labelPosition=right;points=[];portConstraint=eastwest;fillColor=#e1d5e7;strokeColor=#9673a6;" parent="D_atLNyOjQKJW8hiToG2-40" vertex="1">
          <mxGeometry y="80" width="200" height="8" as="geometry" />
        </mxCell>
        <mxCell id="D_atLNyOjQKJW8hiToG2-44" value="+ filtrocategoria(categoria, categorias): Response" style="text;strokeColor=#9673a6;fillColor=#e1d5e7;align=left;verticalAlign=top;spacingLeft=4;spacingRight=4;overflow=hidden;rotatable=0;points=[[0,0.5],[1,0.5]];portConstraint=eastwest;whiteSpace=wrap;html=1;" parent="D_atLNyOjQKJW8hiToG2-40" vertex="1">
          <mxGeometry y="88" width="200" height="42" as="geometry" />
        </mxCell>
        <mxCell id="D_atLNyOjQKJW8hiToG2-45" value="Filtro Busqueda" style="swimlane;fontStyle=2;align=center;verticalAlign=top;childLayout=stackLayout;horizontal=1;startSize=26;horizontalStack=0;resizeParent=1;resizeLast=0;collapsible=1;marginBottom=0;rounded=0;shadow=0;strokeWidth=1;fillColor=#e1d5e7;strokeColor=#9673a6;" parent="WIyWlLk6GJQsqaUBKTNV-1" vertex="1">
          <mxGeometry x="930" y="-30" width="200" height="130" as="geometry">
            <mxRectangle x="230" y="140" width="160" height="26" as="alternateBounds" />
          </mxGeometry>
        </mxCell>
        <mxCell id="D_atLNyOjQKJW8hiToG2-46" value="+ busqueda: str" style="text;strokeColor=#9673a6;fillColor=#e1d5e7;align=left;verticalAlign=top;spacingLeft=4;spacingRight=4;overflow=hidden;rotatable=0;points=[[0,0.5],[1,0.5]];portConstraint=eastwest;whiteSpace=wrap;html=1;" parent="D_atLNyOjQKJW8hiToG2-45" vertex="1">
          <mxGeometry y="26" width="200" height="26" as="geometry" />
        </mxCell>
        <mxCell id="D_atLNyOjQKJW8hiToG2-47" value="+ categorias: str" style="text;strokeColor=#9673a6;fillColor=#e1d5e7;align=left;verticalAlign=top;spacingLeft=4;spacingRight=4;overflow=hidden;rotatable=0;points=[[0,0.5],[1,0.5]];portConstraint=eastwest;whiteSpace=wrap;html=1;" parent="D_atLNyOjQKJW8hiToG2-45" vertex="1">
          <mxGeometry y="52" width="200" height="28" as="geometry" />
        </mxCell>
        <mxCell id="D_atLNyOjQKJW8hiToG2-48" value="" style="line;html=1;strokeWidth=1;align=left;verticalAlign=middle;spacingTop=-1;spacingLeft=3;spacingRight=3;rotatable=0;labelPosition=right;points=[];portConstraint=eastwest;fillColor=#e1d5e7;strokeColor=#9673a6;" parent="D_atLNyOjQKJW8hiToG2-45" vertex="1">
          <mxGeometry y="80" width="200" height="8" as="geometry" />
        </mxCell>
        <mxCell id="D_atLNyOjQKJW8hiToG2-49" value="+ filtrobusqueda (busqueda, categorias): Response" style="text;strokeColor=#9673a6;fillColor=#e1d5e7;align=left;verticalAlign=top;spacingLeft=4;spacingRight=4;overflow=hidden;rotatable=0;points=[[0,0.5],[1,0.5]];portConstraint=eastwest;whiteSpace=wrap;html=1;" parent="D_atLNyOjQKJW8hiToG2-45" vertex="1">
          <mxGeometry y="88" width="200" height="42" as="geometry" />
        </mxCell>
        <mxCell id="D_atLNyOjQKJW8hiToG2-50" value="Categoría" style="swimlane;fontStyle=2;align=center;verticalAlign=top;childLayout=stackLayout;horizontal=1;startSize=26;horizontalStack=0;resizeParent=1;resizeLast=0;collapsible=1;marginBottom=0;rounded=0;shadow=0;strokeWidth=1;fillColor=#e1d5e7;strokeColor=#9673a6;" parent="WIyWlLk6GJQsqaUBKTNV-1" vertex="1">
          <mxGeometry x="1090" y="-129" width="151" height="50" as="geometry">
            <mxRectangle x="230" y="140" width="160" height="26" as="alternateBounds" />
          </mxGeometry>
        </mxCell>
        <mxCell id="D_atLNyOjQKJW8hiToG2-51" value="+ nombre: str" style="text;strokeColor=#9673a6;fillColor=#e1d5e7;align=left;verticalAlign=top;spacingLeft=4;spacingRight=4;overflow=hidden;rotatable=0;points=[[0,0.5],[1,0.5]];portConstraint=eastwest;whiteSpace=wrap;html=1;" parent="D_atLNyOjQKJW8hiToG2-50" vertex="1">
          <mxGeometry y="26" width="151" height="24" as="geometry" />
        </mxCell>
        <mxCell id="D_atLNyOjQKJW8hiToG2-52" value="PagoWebpay" style="swimlane;fontStyle=2;align=center;verticalAlign=top;childLayout=stackLayout;horizontal=1;startSize=26;horizontalStack=0;resizeParent=1;resizeLast=0;collapsible=1;marginBottom=0;rounded=0;shadow=0;strokeWidth=1;fillColor=#e1d5e7;strokeColor=#9673a6;" parent="WIyWlLk6GJQsqaUBKTNV-1" vertex="1">
          <mxGeometry x="1580" y="1059" width="190" height="220" as="geometry">
            <mxRectangle x="230" y="140" width="160" height="26" as="alternateBounds" />
          </mxGeometry>
        </mxCell>
        <mxCell id="D_atLNyOjQKJW8hiToG2-53" value="+ idCliente: str" style="text;strokeColor=#9673a6;fillColor=#e1d5e7;align=left;verticalAlign=top;spacingLeft=4;spacingRight=4;overflow=hidden;rotatable=0;points=[[0,0.5],[1,0.5]];portConstraint=eastwest;whiteSpace=wrap;html=1;" parent="D_atLNyOjQKJW8hiToG2-52" vertex="1">
          <mxGeometry y="26" width="190" height="26" as="geometry" />
        </mxCell>
        <mxCell id="D_atLNyOjQKJW8hiToG2-54" value="+ monto: int" style="text;strokeColor=#9673a6;fillColor=#e1d5e7;align=left;verticalAlign=top;spacingLeft=4;spacingRight=4;overflow=hidden;rotatable=0;points=[[0,0.5],[1,0.5]];portConstraint=eastwest;whiteSpace=wrap;html=1;" parent="D_atLNyOjQKJW8hiToG2-52" vertex="1">
          <mxGeometry y="52" width="190" height="28" as="geometry" />
        </mxCell>
        <mxCell id="D_atLNyOjQKJW8hiToG2-55" value="+ numTarjeta: str" style="text;strokeColor=#9673a6;fillColor=#e1d5e7;align=left;verticalAlign=top;spacingLeft=4;spacingRight=4;overflow=hidden;rotatable=0;points=[[0,0.5],[1,0.5]];portConstraint=eastwest;whiteSpace=wrap;html=1;" parent="D_atLNyOjQKJW8hiToG2-52" vertex="1">
          <mxGeometry y="80" width="190" height="26" as="geometry" />
        </mxCell>
        <mxCell id="D_atLNyOjQKJW8hiToG2-56" value="+ vencimiento: str" style="text;strokeColor=#9673a6;fillColor=#e1d5e7;align=left;verticalAlign=top;spacingLeft=4;spacingRight=4;overflow=hidden;rotatable=0;points=[[0,0.5],[1,0.5]];portConstraint=eastwest;whiteSpace=wrap;html=1;" parent="D_atLNyOjQKJW8hiToG2-52" vertex="1">
          <mxGeometry y="106" width="190" height="26" as="geometry" />
        </mxCell>
        <mxCell id="D_atLNyOjQKJW8hiToG2-57" value="+ cvv: str" style="text;strokeColor=#9673a6;fillColor=#e1d5e7;align=left;verticalAlign=top;spacingLeft=4;spacingRight=4;overflow=hidden;rotatable=0;points=[[0,0.5],[1,0.5]];portConstraint=eastwest;whiteSpace=wrap;html=1;" parent="D_atLNyOjQKJW8hiToG2-52" vertex="1">
          <mxGeometry y="132" width="190" height="26" as="geometry" />
        </mxCell>
        <mxCell id="D_atLNyOjQKJW8hiToG2-58" value="" style="line;html=1;strokeWidth=1;align=left;verticalAlign=middle;spacingTop=-1;spacingLeft=3;spacingRight=3;rotatable=0;labelPosition=right;points=[];portConstraint=eastwest;fillColor=#e1d5e7;strokeColor=#9673a6;" parent="D_atLNyOjQKJW8hiToG2-52" vertex="1">
          <mxGeometry y="158" width="190" height="8" as="geometry" />
        </mxCell>
        <mxCell id="D_atLNyOjQKJW8hiToG2-59" value="+ pagoW (idCliente, monto, numTarjeta, vencimiento, cvv): Response" style="text;strokeColor=#9673a6;fillColor=#e1d5e7;align=left;verticalAlign=top;spacingLeft=4;spacingRight=4;overflow=hidden;rotatable=0;points=[[0,0.5],[1,0.5]];portConstraint=eastwest;whiteSpace=wrap;html=1;" parent="D_atLNyOjQKJW8hiToG2-52" vertex="1">
          <mxGeometry y="166" width="190" height="54" as="geometry" />
        </mxCell>
        <mxCell id="D_atLNyOjQKJW8hiToG2-60" value="PagoTarjetaDigital" style="swimlane;fontStyle=2;align=center;verticalAlign=top;childLayout=stackLayout;horizontal=1;startSize=26;horizontalStack=0;resizeParent=1;resizeLast=0;collapsible=1;marginBottom=0;rounded=0;shadow=0;strokeWidth=1;fillColor=#e1d5e7;strokeColor=#9673a6;" parent="WIyWlLk6GJQsqaUBKTNV-1" vertex="1">
          <mxGeometry x="800" y="1059" width="190" height="157" as="geometry">
            <mxRectangle x="230" y="140" width="160" height="26" as="alternateBounds" />
          </mxGeometry>
        </mxCell>
        <mxCell id="D_atLNyOjQKJW8hiToG2-61" value="+ idCliente: str" style="text;strokeColor=#9673a6;fillColor=#e1d5e7;align=left;verticalAlign=top;spacingLeft=4;spacingRight=4;overflow=hidden;rotatable=0;points=[[0,0.5],[1,0.5]];portConstraint=eastwest;whiteSpace=wrap;html=1;" parent="D_atLNyOjQKJW8hiToG2-60" vertex="1">
          <mxGeometry y="26" width="190" height="26" as="geometry" />
        </mxCell>
        <mxCell id="D_atLNyOjQKJW8hiToG2-62" value="+ monto: int" style="text;strokeColor=#9673a6;fillColor=#e1d5e7;align=left;verticalAlign=top;spacingLeft=4;spacingRight=4;overflow=hidden;rotatable=0;points=[[0,0.5],[1,0.5]];portConstraint=eastwest;whiteSpace=wrap;html=1;" parent="D_atLNyOjQKJW8hiToG2-60" vertex="1">
          <mxGeometry y="52" width="190" height="28" as="geometry" />
        </mxCell>
        <mxCell id="D_atLNyOjQKJW8hiToG2-63" value="+ idDispositivo: str" style="text;strokeColor=#9673a6;fillColor=#e1d5e7;align=left;verticalAlign=top;spacingLeft=4;spacingRight=4;overflow=hidden;rotatable=0;points=[[0,0.5],[1,0.5]];portConstraint=eastwest;whiteSpace=wrap;html=1;" parent="D_atLNyOjQKJW8hiToG2-60" vertex="1">
          <mxGeometry y="80" width="190" height="26" as="geometry" />
        </mxCell>
        <mxCell id="D_atLNyOjQKJW8hiToG2-64" value="" style="line;html=1;strokeWidth=1;align=left;verticalAlign=middle;spacingTop=-1;spacingLeft=3;spacingRight=3;rotatable=0;labelPosition=right;points=[];portConstraint=eastwest;fillColor=#e1d5e7;strokeColor=#9673a6;" parent="D_atLNyOjQKJW8hiToG2-60" vertex="1">
          <mxGeometry y="106" width="190" height="8" as="geometry" />
        </mxCell>
        <mxCell id="D_atLNyOjQKJW8hiToG2-65" value="+ pagoCel(idCliente, monto, idDispositivo): Response" style="text;strokeColor=#9673a6;fillColor=#e1d5e7;align=left;verticalAlign=top;spacingLeft=4;spacingRight=4;overflow=hidden;rotatable=0;points=[[0,0.5],[1,0.5]];portConstraint=eastwest;whiteSpace=wrap;html=1;" parent="D_atLNyOjQKJW8hiToG2-60" vertex="1">
          <mxGeometry y="114" width="190" height="36" as="geometry" />
        </mxCell>
        <mxCell id="D_atLNyOjQKJW8hiToG2-66" value="Carrito" style="swimlane;fontStyle=2;align=center;verticalAlign=top;childLayout=stackLayout;horizontal=1;startSize=26;horizontalStack=0;resizeParent=1;resizeLast=0;collapsible=1;marginBottom=0;rounded=0;shadow=0;strokeWidth=1;fillColor=#e1d5e7;strokeColor=#9673a6;" parent="WIyWlLk6GJQsqaUBKTNV-1" vertex="1">
          <mxGeometry x="1069.88" y="144" width="199.75" height="130" as="geometry">
            <mxRectangle x="230" y="140" width="160" height="26" as="alternateBounds" />
          </mxGeometry>
        </mxCell>
        <mxCell id="D_atLNyOjQKJW8hiToG2-67" value="+ idProducto: str" style="text;strokeColor=#9673a6;fillColor=#e1d5e7;align=left;verticalAlign=top;spacingLeft=4;spacingRight=4;overflow=hidden;rotatable=0;points=[[0,0.5],[1,0.5]];portConstraint=eastwest;whiteSpace=wrap;html=1;" parent="D_atLNyOjQKJW8hiToG2-66" vertex="1">
          <mxGeometry y="26" width="199.75" height="26" as="geometry" />
        </mxCell>
        <mxCell id="D_atLNyOjQKJW8hiToG2-68" value="+ monto: int" style="text;strokeColor=#9673a6;fillColor=#e1d5e7;align=left;verticalAlign=top;spacingLeft=4;spacingRight=4;overflow=hidden;rotatable=0;points=[[0,0.5],[1,0.5]];portConstraint=eastwest;whiteSpace=wrap;html=1;" parent="D_atLNyOjQKJW8hiToG2-66" vertex="1">
          <mxGeometry y="52" width="199.75" height="28" as="geometry" />
        </mxCell>
        <mxCell id="D_atLNyOjQKJW8hiToG2-69" value="" style="line;html=1;strokeWidth=1;align=left;verticalAlign=middle;spacingTop=-1;spacingLeft=3;spacingRight=3;rotatable=0;labelPosition=right;points=[];portConstraint=eastwest;fillColor=#e1d5e7;strokeColor=#9673a6;" parent="D_atLNyOjQKJW8hiToG2-66" vertex="1">
          <mxGeometry y="80" width="199.75" height="8" as="geometry" />
        </mxCell>
        <mxCell id="D_atLNyOjQKJW8hiToG2-70" value="+ AgregarProducto(idProducto, monto): Response" style="text;strokeColor=#9673a6;fillColor=#e1d5e7;align=left;verticalAlign=top;spacingLeft=4;spacingRight=4;overflow=hidden;rotatable=0;points=[[0,0.5],[1,0.5]];portConstraint=eastwest;whiteSpace=wrap;html=1;" parent="D_atLNyOjQKJW8hiToG2-66" vertex="1">
          <mxGeometry y="88" width="199.75" height="42" as="geometry" />
        </mxCell>
        <mxCell id="D_atLNyOjQKJW8hiToG2-71" style="edgeStyle=none;curved=1;rounded=0;orthogonalLoop=1;jettySize=auto;html=1;exitX=0.75;exitY=0;exitDx=0;exitDy=0;fontSize=12;startSize=8;endSize=8;movable=1;resizable=1;rotatable=1;deletable=1;editable=1;locked=0;connectable=1;fillColor=#e1d5e7;strokeColor=#9673a6;" parent="WIyWlLk6GJQsqaUBKTNV-1" edge="1">
          <mxGeometry relative="1" as="geometry">
            <mxPoint x="1286.25" y="788" as="sourcePoint" />
            <mxPoint x="1286.25" y="788" as="targetPoint" />
          </mxGeometry>
        </mxCell>
        <mxCell id="D_atLNyOjQKJW8hiToG2-72" value="Producto" style="swimlane;fontStyle=2;align=center;verticalAlign=top;childLayout=stackLayout;horizontal=1;startSize=26;horizontalStack=0;resizeParent=1;resizeLast=0;collapsible=1;marginBottom=0;rounded=0;shadow=0;strokeWidth=1;fillColor=#e1d5e7;strokeColor=#9673a6;" parent="WIyWlLk6GJQsqaUBKTNV-1" vertex="1">
          <mxGeometry x="1550" y="140" width="160" height="138" as="geometry">
            <mxRectangle x="230" y="140" width="160" height="26" as="alternateBounds" />
          </mxGeometry>
        </mxCell>
        <mxCell id="D_atLNyOjQKJW8hiToG2-73" value="+ nombre: str" style="text;strokeColor=#9673a6;fillColor=#e1d5e7;align=left;verticalAlign=top;spacingLeft=4;spacingRight=4;overflow=hidden;rotatable=0;points=[[0,0.5],[1,0.5]];portConstraint=eastwest;whiteSpace=wrap;html=1;" parent="D_atLNyOjQKJW8hiToG2-72" vertex="1">
          <mxGeometry y="26" width="160" height="26" as="geometry" />
        </mxCell>
        <mxCell id="D_atLNyOjQKJW8hiToG2-74" value="+ precio: int" style="text;strokeColor=#9673a6;fillColor=#e1d5e7;align=left;verticalAlign=top;spacingLeft=4;spacingRight=4;overflow=hidden;rotatable=0;points=[[0,0.5],[1,0.5]];portConstraint=eastwest;whiteSpace=wrap;html=1;" parent="D_atLNyOjQKJW8hiToG2-72" vertex="1">
          <mxGeometry y="52" width="160" height="28" as="geometry" />
        </mxCell>
        <mxCell id="D_atLNyOjQKJW8hiToG2-75" value="+ categoria: str" style="text;strokeColor=#9673a6;fillColor=#e1d5e7;align=left;verticalAlign=top;spacingLeft=4;spacingRight=4;overflow=hidden;rotatable=0;points=[[0,0.5],[1,0.5]];portConstraint=eastwest;whiteSpace=wrap;html=1;" parent="D_atLNyOjQKJW8hiToG2-72" vertex="1">
          <mxGeometry y="80" width="160" height="26" as="geometry" />
        </mxCell>
        <mxCell id="D_atLNyOjQKJW8hiToG2-76" value="" style="line;html=1;strokeWidth=1;align=left;verticalAlign=middle;spacingTop=-1;spacingLeft=3;spacingRight=3;rotatable=0;labelPosition=right;points=[];portConstraint=eastwest;fillColor=#e1d5e7;strokeColor=#9673a6;" parent="D_atLNyOjQKJW8hiToG2-72" vertex="1">
          <mxGeometry y="106" width="160" height="8" as="geometry" />
        </mxCell>
        <mxCell id="D_atLNyOjQKJW8hiToG2-77" value="+ Disponibilidad(): bool" style="text;strokeColor=#9673a6;fillColor=#e1d5e7;align=left;verticalAlign=top;spacingLeft=4;spacingRight=4;overflow=hidden;rotatable=0;points=[[0,0.5],[1,0.5]];portConstraint=eastwest;whiteSpace=wrap;html=1;" parent="D_atLNyOjQKJW8hiToG2-72" vertex="1">
          <mxGeometry y="114" width="160" height="24" as="geometry" />
        </mxCell>
        <mxCell id="D_atLNyOjQKJW8hiToG2-78" value="Precio" style="swimlane;fontStyle=2;align=center;verticalAlign=top;childLayout=stackLayout;horizontal=1;startSize=26;horizontalStack=0;resizeParent=1;resizeLast=0;collapsible=1;marginBottom=0;rounded=0;shadow=0;strokeWidth=1;fillColor=#e1d5e7;strokeColor=#9673a6;" parent="WIyWlLk6GJQsqaUBKTNV-1" vertex="1">
          <mxGeometry x="1760" y="140" width="160" height="110" as="geometry">
            <mxRectangle x="230" y="140" width="160" height="26" as="alternateBounds" />
          </mxGeometry>
        </mxCell>
        <mxCell id="D_atLNyOjQKJW8hiToG2-79" value="+ fecha: timestamp" style="text;strokeColor=#9673a6;fillColor=#e1d5e7;align=left;verticalAlign=top;spacingLeft=4;spacingRight=4;overflow=hidden;rotatable=0;points=[[0,0.5],[1,0.5]];portConstraint=eastwest;whiteSpace=wrap;html=1;" parent="D_atLNyOjQKJW8hiToG2-78" vertex="1">
          <mxGeometry y="26" width="160" height="26" as="geometry" />
        </mxCell>
        <mxCell id="D_atLNyOjQKJW8hiToG2-80" value="+ precio: int" style="text;strokeColor=#9673a6;fillColor=#e1d5e7;align=left;verticalAlign=top;spacingLeft=4;spacingRight=4;overflow=hidden;rotatable=0;points=[[0,0.5],[1,0.5]];portConstraint=eastwest;whiteSpace=wrap;html=1;" parent="D_atLNyOjQKJW8hiToG2-78" vertex="1">
          <mxGeometry y="52" width="160" height="28" as="geometry" />
        </mxCell>
        <mxCell id="D_atLNyOjQKJW8hiToG2-81" value="+ idProducto: producto" style="text;strokeColor=#9673a6;fillColor=#e1d5e7;align=left;verticalAlign=top;spacingLeft=4;spacingRight=4;overflow=hidden;rotatable=0;points=[[0,0.5],[1,0.5]];portConstraint=eastwest;whiteSpace=wrap;html=1;" parent="D_atLNyOjQKJW8hiToG2-78" vertex="1">
          <mxGeometry y="80" width="160" height="26" as="geometry" />
        </mxCell>
        <mxCell id="D_atLNyOjQKJW8hiToG2-82" value="" style="endArrow=diamondThin;endFill=1;endSize=24;html=1;rounded=0;exitX=0;exitY=0.5;exitDx=0;exitDy=0;entryX=0.976;entryY=0.279;entryDx=0;entryDy=0;entryPerimeter=0;fillColor=#e1d5e7;strokeColor=#000000;" parent="WIyWlLk6GJQsqaUBKTNV-1" source="D_atLNyOjQKJW8hiToG2-74" target="D_atLNyOjQKJW8hiToG2-310" edge="1">
          <mxGeometry width="160" relative="1" as="geometry">
            <mxPoint x="783" y="819" as="sourcePoint" />
            <mxPoint x="1500" y="69" as="targetPoint" />
          </mxGeometry>
        </mxCell>
        <mxCell id="D_atLNyOjQKJW8hiToG2-83" value="" style="endArrow=diamondThin;endFill=1;endSize=24;html=1;rounded=0;entryX=1;entryY=0.5;entryDx=0;entryDy=0;exitX=0;exitY=0.5;exitDx=0;exitDy=0;" parent="WIyWlLk6GJQsqaUBKTNV-1" source="D_atLNyOjQKJW8hiToG2-80" target="D_atLNyOjQKJW8hiToG2-74" edge="1">
          <mxGeometry width="160" relative="1" as="geometry">
            <mxPoint x="1093" y="799" as="sourcePoint" />
            <mxPoint x="1013" y="799" as="targetPoint" />
          </mxGeometry>
        </mxCell>
        <mxCell id="D_atLNyOjQKJW8hiToG2-84" value="Direccion" style="swimlane;fontStyle=2;align=center;verticalAlign=top;childLayout=stackLayout;horizontal=1;startSize=26;horizontalStack=0;resizeParent=1;resizeLast=0;collapsible=1;marginBottom=0;rounded=0;shadow=0;strokeWidth=1;fillColor=#e1d5e7;strokeColor=#9673a6;" parent="WIyWlLk6GJQsqaUBKTNV-1" vertex="1">
          <mxGeometry x="1437.5" y="-120" width="272.5" height="219" as="geometry">
            <mxRectangle x="230" y="140" width="160" height="26" as="alternateBounds" />
          </mxGeometry>
        </mxCell>
        <mxCell id="D_atLNyOjQKJW8hiToG2-85" value="+ calle: str" style="text;strokeColor=#9673a6;fillColor=#e1d5e7;align=left;verticalAlign=top;spacingLeft=4;spacingRight=4;overflow=hidden;rotatable=0;points=[[0,0.5],[1,0.5]];portConstraint=eastwest;whiteSpace=wrap;html=1;" parent="D_atLNyOjQKJW8hiToG2-84" vertex="1">
          <mxGeometry y="26" width="272.5" height="26" as="geometry" />
        </mxCell>
        <mxCell id="D_atLNyOjQKJW8hiToG2-86" value="+ numero: int" style="text;strokeColor=#9673a6;fillColor=#e1d5e7;align=left;verticalAlign=top;spacingLeft=4;spacingRight=4;overflow=hidden;rotatable=0;points=[[0,0.5],[1,0.5]];portConstraint=eastwest;whiteSpace=wrap;html=1;" parent="D_atLNyOjQKJW8hiToG2-84" vertex="1">
          <mxGeometry y="52" width="272.5" height="26" as="geometry" />
        </mxCell>
        <mxCell id="D_atLNyOjQKJW8hiToG2-87" value="+ comuna: string" style="text;strokeColor=#9673a6;fillColor=#e1d5e7;align=left;verticalAlign=top;spacingLeft=4;spacingRight=4;overflow=hidden;rotatable=0;points=[[0,0.5],[1,0.5]];portConstraint=eastwest;whiteSpace=wrap;html=1;" parent="D_atLNyOjQKJW8hiToG2-84" vertex="1">
          <mxGeometry y="78" width="272.5" height="26" as="geometry" />
        </mxCell>
        <mxCell id="D_atLNyOjQKJW8hiToG2-88" value="+ postal: string" style="text;strokeColor=#9673a6;fillColor=#e1d5e7;align=left;verticalAlign=top;spacingLeft=4;spacingRight=4;overflow=hidden;rotatable=0;points=[[0,0.5],[1,0.5]];portConstraint=eastwest;whiteSpace=wrap;html=1;" parent="D_atLNyOjQKJW8hiToG2-84" vertex="1">
          <mxGeometry y="104" width="272.5" height="26" as="geometry" />
        </mxCell>
        <mxCell id="D_atLNyOjQKJW8hiToG2-89" value="" style="line;html=1;strokeWidth=1;align=left;verticalAlign=middle;spacingTop=-1;spacingLeft=3;spacingRight=3;rotatable=0;labelPosition=right;points=[];portConstraint=eastwest;fillColor=#e1d5e7;strokeColor=#9673a6;" parent="D_atLNyOjQKJW8hiToG2-84" vertex="1">
          <mxGeometry y="130" width="272.5" height="8" as="geometry" />
        </mxCell>
        <mxCell id="D_atLNyOjQKJW8hiToG2-90" value="+ guardardireccion(calle, numero, comuna, postal): Response" style="text;strokeColor=#9673a6;fillColor=#e1d5e7;align=left;verticalAlign=top;spacingLeft=4;spacingRight=4;overflow=hidden;rotatable=0;points=[[0,0.5],[1,0.5]];portConstraint=eastwest;whiteSpace=wrap;html=1;" parent="D_atLNyOjQKJW8hiToG2-84" vertex="1">
          <mxGeometry y="138" width="272.5" height="42" as="geometry" />
        </mxCell>
        <mxCell id="D_atLNyOjQKJW8hiToG2-91" value="+ validardireccion(calle, numero, comuna, postal): Response" style="text;strokeColor=#9673a6;fillColor=#e1d5e7;align=left;verticalAlign=top;spacingLeft=4;spacingRight=4;overflow=hidden;rotatable=0;points=[[0,0.5],[1,0.5]];portConstraint=eastwest;whiteSpace=wrap;html=1;" parent="D_atLNyOjQKJW8hiToG2-84" vertex="1">
          <mxGeometry y="180" width="272.5" height="38" as="geometry" />
        </mxCell>
        <mxCell id="D_atLNyOjQKJW8hiToG2-116" value="Pago" style="swimlane;fontStyle=2;align=center;verticalAlign=top;childLayout=stackLayout;horizontal=1;startSize=26;horizontalStack=0;resizeParent=1;resizeLast=0;collapsible=1;marginBottom=0;rounded=0;shadow=0;strokeWidth=1;movable=1;resizable=1;rotatable=1;deletable=1;editable=1;locked=0;connectable=1;fillColor=#e1d5e7;strokeColor=#9673a6;" parent="WIyWlLk6GJQsqaUBKTNV-1" vertex="1">
          <mxGeometry x="1234" y="732" width="250" height="266" as="geometry">
            <mxRectangle x="230" y="140" width="160" height="26" as="alternateBounds" />
          </mxGeometry>
        </mxCell>
        <mxCell id="D_atLNyOjQKJW8hiToG2-117" value="+ tarjeta: string" style="text;strokeColor=#9673a6;fillColor=#e1d5e7;align=left;verticalAlign=top;spacingLeft=4;spacingRight=4;overflow=hidden;rotatable=1;points=[[0,0.5],[1,0.5]];portConstraint=eastwest;whiteSpace=wrap;html=1;movable=1;resizable=1;deletable=1;editable=1;locked=0;connectable=1;" parent="D_atLNyOjQKJW8hiToG2-116" vertex="1">
          <mxGeometry y="26" width="250" height="26" as="geometry" />
        </mxCell>
        <mxCell id="D_atLNyOjQKJW8hiToG2-118" value="+ vencimiento: string" style="text;strokeColor=#9673a6;fillColor=#e1d5e7;align=left;verticalAlign=top;spacingLeft=4;spacingRight=4;overflow=hidden;rotatable=1;points=[[0,0.5],[1,0.5]];portConstraint=eastwest;whiteSpace=wrap;html=1;movable=1;resizable=1;deletable=1;editable=1;locked=0;connectable=1;" parent="D_atLNyOjQKJW8hiToG2-116" vertex="1">
          <mxGeometry y="52" width="250" height="26" as="geometry" />
        </mxCell>
        <mxCell id="D_atLNyOjQKJW8hiToG2-119" value="+ cvv: string" style="text;strokeColor=#9673a6;fillColor=#e1d5e7;align=left;verticalAlign=top;spacingLeft=4;spacingRight=4;overflow=hidden;rotatable=1;points=[[0,0.5],[1,0.5]];portConstraint=eastwest;whiteSpace=wrap;html=1;movable=1;resizable=1;deletable=1;editable=1;locked=0;connectable=1;" parent="D_atLNyOjQKJW8hiToG2-116" vertex="1">
          <mxGeometry y="78" width="250" height="26" as="geometry" />
        </mxCell>
        <mxCell id="D_atLNyOjQKJW8hiToG2-120" value="+ idCliente: string" style="text;strokeColor=#9673a6;fillColor=#e1d5e7;align=left;verticalAlign=top;spacingLeft=4;spacingRight=4;overflow=hidden;rotatable=1;points=[[0,0.5],[1,0.5]];portConstraint=eastwest;whiteSpace=wrap;html=1;movable=1;resizable=1;deletable=1;editable=1;locked=0;connectable=1;" parent="D_atLNyOjQKJW8hiToG2-116" vertex="1">
          <mxGeometry y="104" width="250" height="26" as="geometry" />
        </mxCell>
        <mxCell id="D_atLNyOjQKJW8hiToG2-121" value="+ monto: int" style="text;strokeColor=#9673a6;fillColor=#e1d5e7;align=left;verticalAlign=top;spacingLeft=4;spacingRight=4;overflow=hidden;rotatable=1;points=[[0,0.5],[1,0.5]];portConstraint=eastwest;whiteSpace=wrap;html=1;movable=1;resizable=1;deletable=1;editable=1;locked=0;connectable=1;" parent="D_atLNyOjQKJW8hiToG2-116" vertex="1">
          <mxGeometry y="130" width="250" height="26" as="geometry" />
        </mxCell>
        <mxCell id="D_atLNyOjQKJW8hiToG2-122" value="+ metodoPago: string" style="text;strokeColor=#9673a6;fillColor=#e1d5e7;align=left;verticalAlign=top;spacingLeft=4;spacingRight=4;overflow=hidden;rotatable=1;points=[[0,0.5],[1,0.5]];portConstraint=eastwest;whiteSpace=wrap;html=1;movable=1;resizable=1;deletable=1;editable=1;locked=0;connectable=1;" parent="D_atLNyOjQKJW8hiToG2-116" vertex="1">
          <mxGeometry y="156" width="250" height="26" as="geometry" />
        </mxCell>
        <mxCell id="D_atLNyOjQKJW8hiToG2-123" value="" style="line;html=1;strokeWidth=1;align=left;verticalAlign=middle;spacingTop=-1;spacingLeft=3;spacingRight=3;rotatable=1;labelPosition=right;points=[];portConstraint=eastwest;movable=1;resizable=1;deletable=1;editable=1;locked=0;connectable=1;fillColor=#e1d5e7;strokeColor=#9673a6;" parent="D_atLNyOjQKJW8hiToG2-116" vertex="1">
          <mxGeometry y="182" width="250" height="8" as="geometry" />
        </mxCell>
        <mxCell id="D_atLNyOjQKJW8hiToG2-124" value="+ procesoPago(tarjeta, numero, vencimiento, cvv, idCliente, monto, metodoPago): Response" style="text;strokeColor=#9673a6;fillColor=#e1d5e7;align=left;verticalAlign=top;spacingLeft=4;spacingRight=4;overflow=hidden;rotatable=1;points=[[0,0.5],[1,0.5]];portConstraint=eastwest;whiteSpace=wrap;html=1;movable=1;resizable=1;deletable=1;editable=1;locked=0;connectable=1;" parent="D_atLNyOjQKJW8hiToG2-116" vertex="1">
          <mxGeometry y="190" width="250" height="50" as="geometry" />
        </mxCell>
        <mxCell id="D_atLNyOjQKJW8hiToG2-125" value="+ avisoPago(): bool" style="text;strokeColor=#9673a6;fillColor=#e1d5e7;align=left;verticalAlign=top;spacingLeft=4;spacingRight=4;overflow=hidden;rotatable=1;points=[[0,0.5],[1,0.5]];portConstraint=eastwest;whiteSpace=wrap;html=1;movable=1;resizable=1;deletable=1;editable=1;locked=0;connectable=1;" parent="D_atLNyOjQKJW8hiToG2-116" vertex="1">
          <mxGeometry y="240" width="250" height="26" as="geometry" />
        </mxCell>
        <mxCell id="D_atLNyOjQKJW8hiToG2-126" value="CancelacionPago" style="swimlane;fontStyle=2;align=center;verticalAlign=top;childLayout=stackLayout;horizontal=1;startSize=26;horizontalStack=0;resizeParent=1;resizeLast=0;collapsible=1;marginBottom=0;rounded=0;shadow=0;strokeWidth=1;fillColor=#e1d5e7;strokeColor=#9673a6;" parent="WIyWlLk6GJQsqaUBKTNV-1" vertex="1">
          <mxGeometry x="780" y="539" width="280" height="180" as="geometry">
            <mxRectangle x="230" y="140" width="160" height="26" as="alternateBounds" />
          </mxGeometry>
        </mxCell>
        <mxCell id="D_atLNyOjQKJW8hiToG2-127" value="+ idCliente: string" style="text;strokeColor=#9673a6;fillColor=#e1d5e7;align=left;verticalAlign=top;spacingLeft=4;spacingRight=4;overflow=hidden;rotatable=0;points=[[0,0.5],[1,0.5]];portConstraint=eastwest;whiteSpace=wrap;html=1;" parent="D_atLNyOjQKJW8hiToG2-126" vertex="1">
          <mxGeometry y="26" width="280" height="26" as="geometry" />
        </mxCell>
        <mxCell id="D_atLNyOjQKJW8hiToG2-128" value="+ monto: int" style="text;strokeColor=#9673a6;fillColor=#e1d5e7;align=left;verticalAlign=top;spacingLeft=4;spacingRight=4;overflow=hidden;rotatable=0;points=[[0,0.5],[1,0.5]];portConstraint=eastwest;whiteSpace=wrap;html=1;" parent="D_atLNyOjQKJW8hiToG2-126" vertex="1">
          <mxGeometry y="52" width="280" height="26" as="geometry" />
        </mxCell>
        <mxCell id="D_atLNyOjQKJW8hiToG2-129" value="+ metodoPago: string" style="text;strokeColor=#9673a6;fillColor=#e1d5e7;align=left;verticalAlign=top;spacingLeft=4;spacingRight=4;overflow=hidden;rotatable=0;points=[[0,0.5],[1,0.5]];portConstraint=eastwest;whiteSpace=wrap;html=1;" parent="D_atLNyOjQKJW8hiToG2-126" vertex="1">
          <mxGeometry y="78" width="280" height="26" as="geometry" />
        </mxCell>
        <mxCell id="D_atLNyOjQKJW8hiToG2-130" value="+ idCarrito: string" style="text;strokeColor=#9673a6;fillColor=#e1d5e7;align=left;verticalAlign=top;spacingLeft=4;spacingRight=4;overflow=hidden;rotatable=0;points=[[0,0.5],[1,0.5]];portConstraint=eastwest;whiteSpace=wrap;html=1;" parent="D_atLNyOjQKJW8hiToG2-126" vertex="1">
          <mxGeometry y="104" width="280" height="26" as="geometry" />
        </mxCell>
        <mxCell id="D_atLNyOjQKJW8hiToG2-131" value="" style="line;html=1;strokeWidth=1;align=left;verticalAlign=middle;spacingTop=-1;spacingLeft=3;spacingRight=3;rotatable=0;labelPosition=right;points=[];portConstraint=eastwest;fillColor=#e1d5e7;strokeColor=#9673a6;" parent="D_atLNyOjQKJW8hiToG2-126" vertex="1">
          <mxGeometry y="130" width="280" height="8" as="geometry" />
        </mxCell>
        <mxCell id="D_atLNyOjQKJW8hiToG2-132" value="+ CancelarCompra(idCliente, monto, metodoPago, idCarrito): Response" style="text;strokeColor=#9673a6;fillColor=#e1d5e7;align=left;verticalAlign=top;spacingLeft=4;spacingRight=4;overflow=hidden;rotatable=0;points=[[0,0.5],[1,0.5]];portConstraint=eastwest;whiteSpace=wrap;html=1;" parent="D_atLNyOjQKJW8hiToG2-126" vertex="1">
          <mxGeometry y="138" width="280" height="40" as="geometry" />
        </mxCell>
        <mxCell id="D_atLNyOjQKJW8hiToG2-133" value="ConfirmacionPago" style="swimlane;fontStyle=2;align=center;verticalAlign=top;childLayout=stackLayout;horizontal=1;startSize=26;horizontalStack=0;resizeParent=1;resizeLast=0;collapsible=1;marginBottom=0;rounded=0;shadow=0;strokeWidth=1;fillColor=#e1d5e7;strokeColor=#9673a6;" parent="WIyWlLk6GJQsqaUBKTNV-1" vertex="1">
          <mxGeometry x="1229" y="539" width="260" height="152" as="geometry">
            <mxRectangle x="230" y="140" width="160" height="26" as="alternateBounds" />
          </mxGeometry>
        </mxCell>
        <mxCell id="D_atLNyOjQKJW8hiToG2-134" value="+ idCliente: string" style="text;strokeColor=#9673a6;fillColor=#e1d5e7;align=left;verticalAlign=top;spacingLeft=4;spacingRight=4;overflow=hidden;rotatable=0;points=[[0,0.5],[1,0.5]];portConstraint=eastwest;whiteSpace=wrap;html=1;" parent="D_atLNyOjQKJW8hiToG2-133" vertex="1">
          <mxGeometry y="26" width="260" height="26" as="geometry" />
        </mxCell>
        <mxCell id="D_atLNyOjQKJW8hiToG2-135" value="+ monto: int" style="text;strokeColor=#9673a6;fillColor=#e1d5e7;align=left;verticalAlign=top;spacingLeft=4;spacingRight=4;overflow=hidden;rotatable=0;points=[[0,0.5],[1,0.5]];portConstraint=eastwest;whiteSpace=wrap;html=1;" parent="D_atLNyOjQKJW8hiToG2-133" vertex="1">
          <mxGeometry y="52" width="260" height="26" as="geometry" />
        </mxCell>
        <mxCell id="D_atLNyOjQKJW8hiToG2-136" value="+ idCarrito: string" style="text;strokeColor=#9673a6;fillColor=#e1d5e7;align=left;verticalAlign=top;spacingLeft=4;spacingRight=4;overflow=hidden;rotatable=0;points=[[0,0.5],[1,0.5]];portConstraint=eastwest;whiteSpace=wrap;html=1;" parent="D_atLNyOjQKJW8hiToG2-133" vertex="1">
          <mxGeometry y="78" width="260" height="26" as="geometry" />
        </mxCell>
        <mxCell id="D_atLNyOjQKJW8hiToG2-137" value="" style="line;html=1;strokeWidth=1;align=left;verticalAlign=middle;spacingTop=-1;spacingLeft=3;spacingRight=3;rotatable=0;labelPosition=right;points=[];portConstraint=eastwest;fillColor=#e1d5e7;strokeColor=#9673a6;" parent="D_atLNyOjQKJW8hiToG2-133" vertex="1">
          <mxGeometry y="104" width="260" height="8" as="geometry" />
        </mxCell>
        <mxCell id="D_atLNyOjQKJW8hiToG2-138" value="+ ConfirmarPago(idCliente, monto, idCarrito): Response" style="text;strokeColor=#9673a6;fillColor=#e1d5e7;align=left;verticalAlign=top;spacingLeft=4;spacingRight=4;overflow=hidden;rotatable=0;points=[[0,0.5],[1,0.5]];portConstraint=eastwest;whiteSpace=wrap;html=1;" parent="D_atLNyOjQKJW8hiToG2-133" vertex="1">
          <mxGeometry y="112" width="260" height="40" as="geometry" />
        </mxCell>
        <mxCell id="D_atLNyOjQKJW8hiToG2-139" value="EliminarProducto" style="swimlane;fontStyle=2;align=center;verticalAlign=top;childLayout=stackLayout;horizontal=1;startSize=26;horizontalStack=0;resizeParent=1;resizeLast=0;collapsible=1;marginBottom=0;rounded=0;shadow=0;strokeWidth=1;fillColor=#e1d5e7;strokeColor=#9673a6;" parent="WIyWlLk6GJQsqaUBKTNV-1" vertex="1">
          <mxGeometry x="610" y="789" width="238.5" height="160" as="geometry">
            <mxRectangle x="230" y="140" width="160" height="26" as="alternateBounds" />
          </mxGeometry>
        </mxCell>
        <mxCell id="D_atLNyOjQKJW8hiToG2-140" value="+ idCliente: string" style="text;strokeColor=#9673a6;fillColor=#e1d5e7;align=left;verticalAlign=top;spacingLeft=4;spacingRight=4;overflow=hidden;rotatable=0;points=[[0,0.5],[1,0.5]];portConstraint=eastwest;whiteSpace=wrap;html=1;" parent="D_atLNyOjQKJW8hiToG2-139" vertex="1">
          <mxGeometry y="26" width="238.5" height="26" as="geometry" />
        </mxCell>
        <mxCell id="D_atLNyOjQKJW8hiToG2-141" value="+ idProducto: string" style="text;strokeColor=#9673a6;fillColor=#e1d5e7;align=left;verticalAlign=top;spacingLeft=4;spacingRight=4;overflow=hidden;rotatable=0;points=[[0,0.5],[1,0.5]];portConstraint=eastwest;whiteSpace=wrap;html=1;" parent="D_atLNyOjQKJW8hiToG2-139" vertex="1">
          <mxGeometry y="52" width="238.5" height="26" as="geometry" />
        </mxCell>
        <mxCell id="D_atLNyOjQKJW8hiToG2-142" value="+ idCarrito: string" style="text;strokeColor=#9673a6;fillColor=#e1d5e7;align=left;verticalAlign=top;spacingLeft=4;spacingRight=4;overflow=hidden;rotatable=0;points=[[0,0.5],[1,0.5]];portConstraint=eastwest;whiteSpace=wrap;html=1;" parent="D_atLNyOjQKJW8hiToG2-139" vertex="1">
          <mxGeometry y="78" width="238.5" height="26" as="geometry" />
        </mxCell>
        <mxCell id="D_atLNyOjQKJW8hiToG2-143" value="" style="line;html=1;strokeWidth=1;align=left;verticalAlign=middle;spacingTop=-1;spacingLeft=3;spacingRight=3;rotatable=0;labelPosition=right;points=[];portConstraint=eastwest;fillColor=#e1d5e7;strokeColor=#9673a6;" parent="D_atLNyOjQKJW8hiToG2-139" vertex="1">
          <mxGeometry y="104" width="238.5" height="8" as="geometry" />
        </mxCell>
        <mxCell id="D_atLNyOjQKJW8hiToG2-144" value="+ eliminarProducto(idCliente, idProducto, idCarrito): Response" style="text;strokeColor=#9673a6;fillColor=#e1d5e7;align=left;verticalAlign=top;spacingLeft=4;spacingRight=4;overflow=hidden;rotatable=0;points=[[0,0.5],[1,0.5]];portConstraint=eastwest;whiteSpace=wrap;html=1;" parent="D_atLNyOjQKJW8hiToG2-139" vertex="1">
          <mxGeometry y="112" width="238.5" height="40" as="geometry" />
        </mxCell>
        <mxCell id="D_atLNyOjQKJW8hiToG2-145" value="CancelarCarrito" style="swimlane;fontStyle=2;align=center;verticalAlign=top;childLayout=stackLayout;horizontal=1;startSize=26;horizontalStack=0;resizeParent=1;resizeLast=0;collapsible=1;marginBottom=0;rounded=0;shadow=0;strokeWidth=1;fillColor=#e1d5e7;strokeColor=#9673a6;" parent="WIyWlLk6GJQsqaUBKTNV-1" vertex="1">
          <mxGeometry x="920" y="789" width="260" height="152" as="geometry">
            <mxRectangle x="230" y="140" width="160" height="26" as="alternateBounds" />
          </mxGeometry>
        </mxCell>
        <mxCell id="D_atLNyOjQKJW8hiToG2-146" value="+ idCliente: string" style="text;strokeColor=#9673a6;fillColor=#e1d5e7;align=left;verticalAlign=top;spacingLeft=4;spacingRight=4;overflow=hidden;rotatable=0;points=[[0,0.5],[1,0.5]];portConstraint=eastwest;whiteSpace=wrap;html=1;" parent="D_atLNyOjQKJW8hiToG2-145" vertex="1">
          <mxGeometry y="26" width="260" height="26" as="geometry" />
        </mxCell>
        <mxCell id="D_atLNyOjQKJW8hiToG2-147" value="+ monto: int" style="text;strokeColor=#9673a6;fillColor=#e1d5e7;align=left;verticalAlign=top;spacingLeft=4;spacingRight=4;overflow=hidden;rotatable=0;points=[[0,0.5],[1,0.5]];portConstraint=eastwest;whiteSpace=wrap;html=1;" parent="D_atLNyOjQKJW8hiToG2-145" vertex="1">
          <mxGeometry y="52" width="260" height="26" as="geometry" />
        </mxCell>
        <mxCell id="D_atLNyOjQKJW8hiToG2-148" value="+ idCarrito: string" style="text;strokeColor=#9673a6;fillColor=#e1d5e7;align=left;verticalAlign=top;spacingLeft=4;spacingRight=4;overflow=hidden;rotatable=0;points=[[0,0.5],[1,0.5]];portConstraint=eastwest;whiteSpace=wrap;html=1;" parent="D_atLNyOjQKJW8hiToG2-145" vertex="1">
          <mxGeometry y="78" width="260" height="26" as="geometry" />
        </mxCell>
        <mxCell id="D_atLNyOjQKJW8hiToG2-149" value="" style="line;html=1;strokeWidth=1;align=left;verticalAlign=middle;spacingTop=-1;spacingLeft=3;spacingRight=3;rotatable=0;labelPosition=right;points=[];portConstraint=eastwest;fillColor=#e1d5e7;strokeColor=#9673a6;" parent="D_atLNyOjQKJW8hiToG2-145" vertex="1">
          <mxGeometry y="104" width="260" height="8" as="geometry" />
        </mxCell>
        <mxCell id="D_atLNyOjQKJW8hiToG2-150" value="+ CancelarCompra(idCliente, monto, idCarrito): Response" style="text;strokeColor=#9673a6;fillColor=#e1d5e7;align=left;verticalAlign=top;spacingLeft=4;spacingRight=4;overflow=hidden;rotatable=0;points=[[0,0.5],[1,0.5]];portConstraint=eastwest;whiteSpace=wrap;html=1;" parent="D_atLNyOjQKJW8hiToG2-145" vertex="1">
          <mxGeometry y="112" width="260" height="40" as="geometry" />
        </mxCell>
        <mxCell id="D_atLNyOjQKJW8hiToG2-151" value="PagoCredito" style="swimlane;fontStyle=2;align=center;verticalAlign=top;childLayout=stackLayout;horizontal=1;startSize=26;horizontalStack=0;resizeParent=1;resizeLast=0;collapsible=1;marginBottom=0;rounded=0;shadow=0;strokeWidth=1;movable=1;resizable=1;rotatable=1;deletable=1;editable=1;locked=0;connectable=1;fillColor=#e1d5e7;strokeColor=#9673a6;" parent="WIyWlLk6GJQsqaUBKTNV-1" vertex="1">
          <mxGeometry x="1280" y="1059" width="260" height="187" as="geometry">
            <mxRectangle x="230" y="140" width="160" height="26" as="alternateBounds" />
          </mxGeometry>
        </mxCell>
        <mxCell id="D_atLNyOjQKJW8hiToG2-152" value="+ idCliente: str" style="text;strokeColor=#9673a6;fillColor=#e1d5e7;align=left;verticalAlign=top;spacingLeft=4;spacingRight=4;overflow=hidden;rotatable=1;points=[[0,0.5],[1,0.5]];portConstraint=eastwest;whiteSpace=wrap;html=1;movable=1;resizable=1;deletable=1;editable=1;locked=0;connectable=1;" parent="D_atLNyOjQKJW8hiToG2-151" vertex="1">
          <mxGeometry y="26" width="260" height="26" as="geometry" />
        </mxCell>
        <mxCell id="D_atLNyOjQKJW8hiToG2-153" value="+ monto: int" style="text;strokeColor=#9673a6;fillColor=#e1d5e7;align=left;verticalAlign=top;spacingLeft=4;spacingRight=4;overflow=hidden;rotatable=1;points=[[0,0.5],[1,0.5]];portConstraint=eastwest;whiteSpace=wrap;html=1;movable=1;resizable=1;deletable=1;editable=1;locked=0;connectable=1;" parent="D_atLNyOjQKJW8hiToG2-151" vertex="1">
          <mxGeometry y="52" width="260" height="28" as="geometry" />
        </mxCell>
        <mxCell id="D_atLNyOjQKJW8hiToG2-154" value="+ Tarjeta: str" style="text;strokeColor=#9673a6;fillColor=#e1d5e7;align=left;verticalAlign=top;spacingLeft=4;spacingRight=4;overflow=hidden;rotatable=1;points=[[0,0.5],[1,0.5]];portConstraint=eastwest;whiteSpace=wrap;html=1;movable=1;resizable=1;deletable=1;editable=1;locked=0;connectable=1;" parent="D_atLNyOjQKJW8hiToG2-151" vertex="1">
          <mxGeometry y="80" width="260" height="26" as="geometry" />
        </mxCell>
        <mxCell id="D_atLNyOjQKJW8hiToG2-155" value="+ cuotas: int" style="text;strokeColor=#9673a6;fillColor=#e1d5e7;align=left;verticalAlign=top;spacingLeft=4;spacingRight=4;overflow=hidden;rotatable=1;points=[[0,0.5],[1,0.5]];portConstraint=eastwest;whiteSpace=wrap;html=1;movable=1;resizable=1;deletable=1;editable=1;locked=0;connectable=1;" parent="D_atLNyOjQKJW8hiToG2-151" vertex="1">
          <mxGeometry y="106" width="260" height="26" as="geometry" />
        </mxCell>
        <mxCell id="D_atLNyOjQKJW8hiToG2-156" value="" style="line;html=1;strokeWidth=1;align=left;verticalAlign=middle;spacingTop=-1;spacingLeft=3;spacingRight=3;rotatable=1;labelPosition=right;points=[];portConstraint=eastwest;movable=1;resizable=1;deletable=1;editable=1;locked=0;connectable=1;fillColor=#e1d5e7;strokeColor=#9673a6;" parent="D_atLNyOjQKJW8hiToG2-151" vertex="1">
          <mxGeometry y="132" width="260" height="8" as="geometry" />
        </mxCell>
        <mxCell id="D_atLNyOjQKJW8hiToG2-157" value="+ pagar(idCliente, monto, Tarjeta, cuotas): Response" style="text;strokeColor=#9673a6;fillColor=#e1d5e7;align=left;verticalAlign=top;spacingLeft=4;spacingRight=4;overflow=hidden;rotatable=1;points=[[0,0.5],[1,0.5]];portConstraint=eastwest;whiteSpace=wrap;html=1;movable=1;resizable=1;deletable=1;editable=1;locked=0;connectable=1;" parent="D_atLNyOjQKJW8hiToG2-151" vertex="1">
          <mxGeometry y="140" width="260" height="40" as="geometry" />
        </mxCell>
        <mxCell id="D_atLNyOjQKJW8hiToG2-158" value="PagoDebito" style="swimlane;fontStyle=2;align=center;verticalAlign=top;childLayout=stackLayout;horizontal=1;startSize=26;horizontalStack=0;resizeParent=1;resizeLast=0;collapsible=1;marginBottom=0;rounded=0;shadow=0;strokeWidth=1;fillColor=#e1d5e7;strokeColor=#9673a6;" parent="WIyWlLk6GJQsqaUBKTNV-1" vertex="1">
          <mxGeometry x="1031" y="1059" width="220" height="157" as="geometry">
            <mxRectangle x="230" y="140" width="160" height="26" as="alternateBounds" />
          </mxGeometry>
        </mxCell>
        <mxCell id="D_atLNyOjQKJW8hiToG2-159" value="+ idCliente: str" style="text;strokeColor=#9673a6;fillColor=#e1d5e7;align=left;verticalAlign=top;spacingLeft=4;spacingRight=4;overflow=hidden;rotatable=0;points=[[0,0.5],[1,0.5]];portConstraint=eastwest;whiteSpace=wrap;html=1;" parent="D_atLNyOjQKJW8hiToG2-158" vertex="1">
          <mxGeometry y="26" width="220" height="26" as="geometry" />
        </mxCell>
        <mxCell id="D_atLNyOjQKJW8hiToG2-160" value="+ monto: int" style="text;strokeColor=#9673a6;fillColor=#e1d5e7;align=left;verticalAlign=top;spacingLeft=4;spacingRight=4;overflow=hidden;rotatable=0;points=[[0,0.5],[1,0.5]];portConstraint=eastwest;whiteSpace=wrap;html=1;" parent="D_atLNyOjQKJW8hiToG2-158" vertex="1">
          <mxGeometry y="52" width="220" height="28" as="geometry" />
        </mxCell>
        <mxCell id="D_atLNyOjQKJW8hiToG2-161" value="+ Tarjeta: str" style="text;strokeColor=#9673a6;fillColor=#e1d5e7;align=left;verticalAlign=top;spacingLeft=4;spacingRight=4;overflow=hidden;rotatable=0;points=[[0,0.5],[1,0.5]];portConstraint=eastwest;whiteSpace=wrap;html=1;" parent="D_atLNyOjQKJW8hiToG2-158" vertex="1">
          <mxGeometry y="80" width="220" height="26" as="geometry" />
        </mxCell>
        <mxCell id="D_atLNyOjQKJW8hiToG2-162" value="" style="line;html=1;strokeWidth=1;align=left;verticalAlign=middle;spacingTop=-1;spacingLeft=3;spacingRight=3;rotatable=0;labelPosition=right;points=[];portConstraint=eastwest;fillColor=#e1d5e7;strokeColor=#9673a6;" parent="D_atLNyOjQKJW8hiToG2-158" vertex="1">
          <mxGeometry y="106" width="220" height="8" as="geometry" />
        </mxCell>
        <mxCell id="D_atLNyOjQKJW8hiToG2-163" value="+ pagar(idCliente, monto, Tarjeta): Response" style="text;strokeColor=#9673a6;fillColor=#e1d5e7;align=left;verticalAlign=top;spacingLeft=4;spacingRight=4;overflow=hidden;rotatable=0;points=[[0,0.5],[1,0.5]];portConstraint=eastwest;whiteSpace=wrap;html=1;" parent="D_atLNyOjQKJW8hiToG2-158" vertex="1">
          <mxGeometry y="114" width="220" height="36" as="geometry" />
        </mxCell>
        <mxCell id="D_atLNyOjQKJW8hiToG2-181" value="ValidarDireccion" style="swimlane;fontStyle=2;align=center;verticalAlign=top;childLayout=stackLayout;horizontal=1;startSize=26;horizontalStack=0;resizeParent=1;resizeLast=0;collapsible=1;marginBottom=0;rounded=0;shadow=0;strokeWidth=1;fillColor=#ffe6cc;strokeColor=#d79b00;" parent="WIyWlLk6GJQsqaUBKTNV-1" vertex="1">
          <mxGeometry x="255" y="460" width="220" height="192" as="geometry">
            <mxRectangle x="230" y="140" width="160" height="26" as="alternateBounds" />
          </mxGeometry>
        </mxCell>
        <mxCell id="D_atLNyOjQKJW8hiToG2-182" value="+ idCliente: string" style="text;strokeColor=#d79b00;fillColor=#ffe6cc;align=left;verticalAlign=top;spacingLeft=4;spacingRight=4;overflow=hidden;rotatable=0;points=[[0,0.5],[1,0.5]];portConstraint=eastwest;whiteSpace=wrap;html=1;" parent="D_atLNyOjQKJW8hiToG2-181" vertex="1">
          <mxGeometry y="26" width="220" height="26" as="geometry" />
        </mxCell>
        <mxCell id="D_atLNyOjQKJW8hiToG2-183" value="+ direccion: string" style="text;strokeColor=#d79b00;fillColor=#ffe6cc;align=left;verticalAlign=top;spacingLeft=4;spacingRight=4;overflow=hidden;rotatable=0;points=[[0,0.5],[1,0.5]];portConstraint=eastwest;whiteSpace=wrap;html=1;" parent="D_atLNyOjQKJW8hiToG2-181" vertex="1">
          <mxGeometry y="52" width="220" height="26" as="geometry" />
        </mxCell>
        <mxCell id="D_atLNyOjQKJW8hiToG2-184" value="+ ubicacionGPS: Lat, Long" style="text;strokeColor=#d79b00;fillColor=#ffe6cc;align=left;verticalAlign=top;spacingLeft=4;spacingRight=4;overflow=hidden;rotatable=0;points=[[0,0.5],[1,0.5]];portConstraint=eastwest;whiteSpace=wrap;html=1;" parent="D_atLNyOjQKJW8hiToG2-181" vertex="1">
          <mxGeometry y="78" width="220" height="26" as="geometry" />
        </mxCell>
        <mxCell id="D_atLNyOjQKJW8hiToG2-185" value="" style="line;html=1;strokeWidth=1;align=left;verticalAlign=middle;spacingTop=-1;spacingLeft=3;spacingRight=3;rotatable=0;labelPosition=right;points=[];portConstraint=eastwest;fillColor=#ffe6cc;strokeColor=#d79b00;" parent="D_atLNyOjQKJW8hiToG2-181" vertex="1">
          <mxGeometry y="104" width="220" height="8" as="geometry" />
        </mxCell>
        <mxCell id="D_atLNyOjQKJW8hiToG2-186" value="+ AgregarUbicacion(ubicacionGPS): Response" style="text;strokeColor=#d79b00;fillColor=#ffe6cc;align=left;verticalAlign=top;spacingLeft=4;spacingRight=4;overflow=hidden;rotatable=0;points=[[0,0.5],[1,0.5]];portConstraint=eastwest;whiteSpace=wrap;html=1;" parent="D_atLNyOjQKJW8hiToG2-181" vertex="1">
          <mxGeometry y="112" width="220" height="40" as="geometry" />
        </mxCell>
        <mxCell id="D_atLNyOjQKJW8hiToG2-187" value="+ validarDireccion(idCliente, direccion, ubicacionGPS): Response" style="text;strokeColor=#d79b00;fillColor=#ffe6cc;align=left;verticalAlign=top;spacingLeft=4;spacingRight=4;overflow=hidden;rotatable=0;points=[[0,0.5],[1,0.5]];portConstraint=eastwest;whiteSpace=wrap;html=1;" parent="D_atLNyOjQKJW8hiToG2-181" vertex="1">
          <mxGeometry y="152" width="220" height="40" as="geometry" />
        </mxCell>
        <mxCell id="D_atLNyOjQKJW8hiToG2-204" value="ImprimirComprobante" style="swimlane;fontStyle=2;align=center;verticalAlign=top;childLayout=stackLayout;horizontal=1;startSize=26;horizontalStack=0;resizeParent=1;resizeLast=0;collapsible=1;marginBottom=0;rounded=0;shadow=0;strokeWidth=1;fillColor=#e1d5e7;strokeColor=#9673a6;" parent="WIyWlLk6GJQsqaUBKTNV-1" vertex="1">
          <mxGeometry x="1320" y="1539" width="240" height="186" as="geometry">
            <mxRectangle x="230" y="140" width="160" height="26" as="alternateBounds" />
          </mxGeometry>
        </mxCell>
        <mxCell id="D_atLNyOjQKJW8hiToG2-205" value="+ idPedido: str" style="text;strokeColor=#9673a6;fillColor=#e1d5e7;align=left;verticalAlign=top;spacingLeft=4;spacingRight=4;overflow=hidden;rotatable=0;points=[[0,0.5],[1,0.5]];portConstraint=eastwest;whiteSpace=wrap;html=1;" parent="D_atLNyOjQKJW8hiToG2-204" vertex="1">
          <mxGeometry y="26" width="240" height="26" as="geometry" />
        </mxCell>
        <mxCell id="D_atLNyOjQKJW8hiToG2-206" value="+ idCliente: str" style="text;strokeColor=#9673a6;fillColor=#e1d5e7;align=left;verticalAlign=top;spacingLeft=4;spacingRight=4;overflow=hidden;rotatable=0;points=[[0,0.5],[1,0.5]];portConstraint=eastwest;whiteSpace=wrap;html=1;" parent="D_atLNyOjQKJW8hiToG2-204" vertex="1">
          <mxGeometry y="52" width="240" height="28" as="geometry" />
        </mxCell>
        <mxCell id="D_atLNyOjQKJW8hiToG2-207" value="+ monto: int" style="text;strokeColor=#9673a6;fillColor=#e1d5e7;align=left;verticalAlign=top;spacingLeft=4;spacingRight=4;overflow=hidden;rotatable=0;points=[[0,0.5],[1,0.5]];portConstraint=eastwest;whiteSpace=wrap;html=1;" parent="D_atLNyOjQKJW8hiToG2-204" vertex="1">
          <mxGeometry y="80" width="240" height="28" as="geometry" />
        </mxCell>
        <mxCell id="D_atLNyOjQKJW8hiToG2-208" value="+ fecha: dateTime" style="text;strokeColor=#9673a6;fillColor=#e1d5e7;align=left;verticalAlign=top;spacingLeft=4;spacingRight=4;overflow=hidden;rotatable=0;points=[[0,0.5],[1,0.5]];portConstraint=eastwest;whiteSpace=wrap;html=1;" parent="D_atLNyOjQKJW8hiToG2-204" vertex="1">
          <mxGeometry y="108" width="240" height="28" as="geometry" />
        </mxCell>
        <mxCell id="D_atLNyOjQKJW8hiToG2-209" value="" style="line;html=1;strokeWidth=1;align=left;verticalAlign=middle;spacingTop=-1;spacingLeft=3;spacingRight=3;rotatable=0;labelPosition=right;points=[];portConstraint=eastwest;fillColor=#e1d5e7;strokeColor=#9673a6;" parent="D_atLNyOjQKJW8hiToG2-204" vertex="1">
          <mxGeometry y="136" width="240" height="8" as="geometry" />
        </mxCell>
        <mxCell id="D_atLNyOjQKJW8hiToG2-210" value="+ imprimirComprobante(idPedido, idCliente, monto): Response" style="text;strokeColor=#9673a6;fillColor=#e1d5e7;align=left;verticalAlign=top;spacingLeft=4;spacingRight=4;overflow=hidden;rotatable=0;points=[[0,0.5],[1,0.5]];portConstraint=eastwest;whiteSpace=wrap;html=1;" parent="D_atLNyOjQKJW8hiToG2-204" vertex="1">
          <mxGeometry y="144" width="240" height="42" as="geometry" />
        </mxCell>
        <mxCell id="D_atLNyOjQKJW8hiToG2-211" value="SolicitarComprobante" style="swimlane;fontStyle=2;align=center;verticalAlign=top;childLayout=stackLayout;horizontal=1;startSize=26;horizontalStack=0;resizeParent=1;resizeLast=0;collapsible=1;marginBottom=0;rounded=0;shadow=0;strokeWidth=1;fillColor=#e1d5e7;strokeColor=#9673a6;" parent="WIyWlLk6GJQsqaUBKTNV-1" vertex="1">
          <mxGeometry x="1154" y="1369" width="230" height="110" as="geometry">
            <mxRectangle x="230" y="140" width="160" height="26" as="alternateBounds" />
          </mxGeometry>
        </mxCell>
        <mxCell id="D_atLNyOjQKJW8hiToG2-212" value="+ Estado: string" style="text;strokeColor=#9673a6;fillColor=#e1d5e7;align=left;verticalAlign=top;spacingLeft=4;spacingRight=4;overflow=hidden;rotatable=0;points=[[0,0.5],[1,0.5]];portConstraint=eastwest;whiteSpace=wrap;html=1;" parent="D_atLNyOjQKJW8hiToG2-211" vertex="1">
          <mxGeometry y="26" width="230" height="26" as="geometry" />
        </mxCell>
        <mxCell id="D_atLNyOjQKJW8hiToG2-213" value="" style="line;html=1;strokeWidth=1;align=left;verticalAlign=middle;spacingTop=-1;spacingLeft=3;spacingRight=3;rotatable=0;labelPosition=right;points=[];portConstraint=eastwest;fillColor=#e1d5e7;strokeColor=#9673a6;" parent="D_atLNyOjQKJW8hiToG2-211" vertex="1">
          <mxGeometry y="52" width="230" height="8" as="geometry" />
        </mxCell>
        <mxCell id="D_atLNyOjQKJW8hiToG2-214" value="+ solicitarComprobante(idCliente, filtroestado): Response" style="text;strokeColor=#9673a6;fillColor=#e1d5e7;align=left;verticalAlign=top;spacingLeft=4;spacingRight=4;overflow=hidden;rotatable=0;points=[[0,0.5],[1,0.5]];portConstraint=eastwest;whiteSpace=wrap;html=1;" parent="D_atLNyOjQKJW8hiToG2-211" vertex="1">
          <mxGeometry y="60" width="230" height="44" as="geometry" />
        </mxCell>
        <mxCell id="D_atLNyOjQKJW8hiToG2-224" value="reennvioComprobante" style="swimlane;fontStyle=2;align=center;verticalAlign=top;childLayout=stackLayout;horizontal=1;startSize=26;horizontalStack=0;resizeParent=1;resizeLast=0;collapsible=1;marginBottom=0;rounded=0;shadow=0;strokeWidth=1;fillColor=#e1d5e7;strokeColor=#9673a6;" parent="WIyWlLk6GJQsqaUBKTNV-1" vertex="1">
          <mxGeometry x="1006" y="1739" width="240" height="214" as="geometry">
            <mxRectangle x="230" y="140" width="160" height="26" as="alternateBounds" />
          </mxGeometry>
        </mxCell>
        <mxCell id="D_atLNyOjQKJW8hiToG2-225" value="+ idPedido: str" style="text;strokeColor=#9673a6;fillColor=#e1d5e7;align=left;verticalAlign=top;spacingLeft=4;spacingRight=4;overflow=hidden;rotatable=0;points=[[0,0.5],[1,0.5]];portConstraint=eastwest;whiteSpace=wrap;html=1;" parent="D_atLNyOjQKJW8hiToG2-224" vertex="1">
          <mxGeometry y="26" width="240" height="26" as="geometry" />
        </mxCell>
        <mxCell id="D_atLNyOjQKJW8hiToG2-226" value="+ idCliente: str" style="text;strokeColor=#9673a6;fillColor=#e1d5e7;align=left;verticalAlign=top;spacingLeft=4;spacingRight=4;overflow=hidden;rotatable=0;points=[[0,0.5],[1,0.5]];portConstraint=eastwest;whiteSpace=wrap;html=1;" parent="D_atLNyOjQKJW8hiToG2-224" vertex="1">
          <mxGeometry y="52" width="240" height="28" as="geometry" />
        </mxCell>
        <mxCell id="D_atLNyOjQKJW8hiToG2-227" value="+ monto: int" style="text;strokeColor=#9673a6;fillColor=#e1d5e7;align=left;verticalAlign=top;spacingLeft=4;spacingRight=4;overflow=hidden;rotatable=0;points=[[0,0.5],[1,0.5]];portConstraint=eastwest;whiteSpace=wrap;html=1;" parent="D_atLNyOjQKJW8hiToG2-224" vertex="1">
          <mxGeometry y="80" width="240" height="28" as="geometry" />
        </mxCell>
        <mxCell id="D_atLNyOjQKJW8hiToG2-228" value="+ fecha: dateTime" style="text;strokeColor=#9673a6;fillColor=#e1d5e7;align=left;verticalAlign=top;spacingLeft=4;spacingRight=4;overflow=hidden;rotatable=0;points=[[0,0.5],[1,0.5]];portConstraint=eastwest;whiteSpace=wrap;html=1;" parent="D_atLNyOjQKJW8hiToG2-224" vertex="1">
          <mxGeometry y="108" width="240" height="28" as="geometry" />
        </mxCell>
        <mxCell id="D_atLNyOjQKJW8hiToG2-229" value="+ email: str" style="text;strokeColor=#9673a6;fillColor=#e1d5e7;align=left;verticalAlign=top;spacingLeft=4;spacingRight=4;overflow=hidden;rotatable=0;points=[[0,0.5],[1,0.5]];portConstraint=eastwest;whiteSpace=wrap;html=1;" parent="D_atLNyOjQKJW8hiToG2-224" vertex="1">
          <mxGeometry y="136" width="240" height="28" as="geometry" />
        </mxCell>
        <mxCell id="D_atLNyOjQKJW8hiToG2-230" value="" style="line;html=1;strokeWidth=1;align=left;verticalAlign=middle;spacingTop=-1;spacingLeft=3;spacingRight=3;rotatable=0;labelPosition=right;points=[];portConstraint=eastwest;fillColor=#e1d5e7;strokeColor=#9673a6;" parent="D_atLNyOjQKJW8hiToG2-224" vertex="1">
          <mxGeometry y="164" width="240" height="8" as="geometry" />
        </mxCell>
        <mxCell id="D_atLNyOjQKJW8hiToG2-231" value="+ reenvioComprobante(idPedido, idCliente, monto): Response" style="text;strokeColor=#9673a6;fillColor=#e1d5e7;align=left;verticalAlign=top;spacingLeft=4;spacingRight=4;overflow=hidden;rotatable=0;points=[[0,0.5],[1,0.5]];portConstraint=eastwest;whiteSpace=wrap;html=1;" parent="D_atLNyOjQKJW8hiToG2-224" vertex="1">
          <mxGeometry y="172" width="240" height="42" as="geometry" />
        </mxCell>
        <mxCell id="D_atLNyOjQKJW8hiToG2-233" value="EnviarComprobanteD" style="swimlane;fontStyle=2;align=center;verticalAlign=top;childLayout=stackLayout;horizontal=1;startSize=26;horizontalStack=0;resizeParent=1;resizeLast=0;collapsible=1;marginBottom=0;rounded=0;shadow=0;strokeWidth=1;fillColor=#e1d5e7;strokeColor=#9673a6;" parent="WIyWlLk6GJQsqaUBKTNV-1" vertex="1">
          <mxGeometry x="1011" y="1539" width="230" height="156" as="geometry">
            <mxRectangle x="230" y="140" width="160" height="26" as="alternateBounds" />
          </mxGeometry>
        </mxCell>
        <mxCell id="D_atLNyOjQKJW8hiToG2-234" value="+ idCliente: string" style="text;strokeColor=#9673a6;fillColor=#e1d5e7;align=left;verticalAlign=top;spacingLeft=4;spacingRight=4;overflow=hidden;rotatable=0;points=[[0,0.5],[1,0.5]];portConstraint=eastwest;whiteSpace=wrap;html=1;" parent="D_atLNyOjQKJW8hiToG2-233" vertex="1">
          <mxGeometry y="26" width="230" height="26" as="geometry" />
        </mxCell>
        <mxCell id="D_atLNyOjQKJW8hiToG2-235" value="+ idPedido: string" style="text;strokeColor=#9673a6;fillColor=#e1d5e7;align=left;verticalAlign=top;spacingLeft=4;spacingRight=4;overflow=hidden;rotatable=0;points=[[0,0.5],[1,0.5]];portConstraint=eastwest;whiteSpace=wrap;html=1;" parent="D_atLNyOjQKJW8hiToG2-233" vertex="1">
          <mxGeometry y="52" width="230" height="26" as="geometry" />
        </mxCell>
        <mxCell id="D_atLNyOjQKJW8hiToG2-236" value="+ email: string" style="text;strokeColor=#9673a6;fillColor=#e1d5e7;align=left;verticalAlign=top;spacingLeft=4;spacingRight=4;overflow=hidden;rotatable=0;points=[[0,0.5],[1,0.5]];portConstraint=eastwest;whiteSpace=wrap;html=1;" parent="D_atLNyOjQKJW8hiToG2-233" vertex="1">
          <mxGeometry y="78" width="230" height="26" as="geometry" />
        </mxCell>
        <mxCell id="D_atLNyOjQKJW8hiToG2-237" value="" style="line;html=1;strokeWidth=1;align=left;verticalAlign=middle;spacingTop=-1;spacingLeft=3;spacingRight=3;rotatable=0;labelPosition=right;points=[];portConstraint=eastwest;fillColor=#e1d5e7;strokeColor=#9673a6;" parent="D_atLNyOjQKJW8hiToG2-233" vertex="1">
          <mxGeometry y="104" width="230" height="8" as="geometry" />
        </mxCell>
        <mxCell id="D_atLNyOjQKJW8hiToG2-238" value="+ enviarComprobante(idCliente, idPedido, email): Response" style="text;strokeColor=#9673a6;fillColor=#e1d5e7;align=left;verticalAlign=top;spacingLeft=4;spacingRight=4;overflow=hidden;rotatable=0;points=[[0,0.5],[1,0.5]];portConstraint=eastwest;whiteSpace=wrap;html=1;" parent="D_atLNyOjQKJW8hiToG2-233" vertex="1">
          <mxGeometry y="112" width="230" height="44" as="geometry" />
        </mxCell>
        <mxCell id="D_atLNyOjQKJW8hiToG2-267" value="EliminarCondimento" style="swimlane;fontStyle=2;align=center;verticalAlign=top;childLayout=stackLayout;horizontal=1;startSize=26;horizontalStack=0;resizeParent=1;resizeLast=0;collapsible=1;marginBottom=0;rounded=0;shadow=0;strokeWidth=1;fillColor=#e1d5e7;strokeColor=#9673a6;" parent="WIyWlLk6GJQsqaUBKTNV-1" vertex="1">
          <mxGeometry x="1200" y="319" width="220" height="152" as="geometry">
            <mxRectangle x="230" y="140" width="160" height="26" as="alternateBounds" />
          </mxGeometry>
        </mxCell>
        <mxCell id="D_atLNyOjQKJW8hiToG2-268" value="+ idPedido: string" style="text;strokeColor=#9673a6;fillColor=#e1d5e7;align=left;verticalAlign=top;spacingLeft=4;spacingRight=4;overflow=hidden;rotatable=0;points=[[0,0.5],[1,0.5]];portConstraint=eastwest;whiteSpace=wrap;html=1;" parent="D_atLNyOjQKJW8hiToG2-267" vertex="1">
          <mxGeometry y="26" width="220" height="26" as="geometry" />
        </mxCell>
        <mxCell id="D_atLNyOjQKJW8hiToG2-269" value="+ idProducto: string" style="text;strokeColor=#9673a6;fillColor=#e1d5e7;align=left;verticalAlign=top;spacingLeft=4;spacingRight=4;overflow=hidden;rotatable=0;points=[[0,0.5],[1,0.5]];portConstraint=eastwest;whiteSpace=wrap;html=1;" parent="D_atLNyOjQKJW8hiToG2-267" vertex="1">
          <mxGeometry y="52" width="220" height="26" as="geometry" />
        </mxCell>
        <mxCell id="D_atLNyOjQKJW8hiToG2-270" value="+ condimento: string" style="text;strokeColor=#9673a6;fillColor=#e1d5e7;align=left;verticalAlign=top;spacingLeft=4;spacingRight=4;overflow=hidden;rotatable=0;points=[[0,0.5],[1,0.5]];portConstraint=eastwest;whiteSpace=wrap;html=1;" parent="D_atLNyOjQKJW8hiToG2-267" vertex="1">
          <mxGeometry y="78" width="220" height="26" as="geometry" />
        </mxCell>
        <mxCell id="D_atLNyOjQKJW8hiToG2-271" value="" style="line;html=1;strokeWidth=1;align=left;verticalAlign=middle;spacingTop=-1;spacingLeft=3;spacingRight=3;rotatable=0;labelPosition=right;points=[];portConstraint=eastwest;fillColor=#e1d5e7;strokeColor=#9673a6;" parent="D_atLNyOjQKJW8hiToG2-267" vertex="1">
          <mxGeometry y="104" width="220" height="8" as="geometry" />
        </mxCell>
        <mxCell id="D_atLNyOjQKJW8hiToG2-272" value="+ eliminarCondimento(idPedido, idProducto, condimento): Response" style="text;strokeColor=#9673a6;fillColor=#e1d5e7;align=left;verticalAlign=top;spacingLeft=4;spacingRight=4;overflow=hidden;rotatable=0;points=[[0,0.5],[1,0.5]];portConstraint=eastwest;whiteSpace=wrap;html=1;" parent="D_atLNyOjQKJW8hiToG2-267" vertex="1">
          <mxGeometry y="112" width="220" height="40" as="geometry" />
        </mxCell>
        <mxCell id="D_atLNyOjQKJW8hiToG2-275" value="AgrandarPedido" style="swimlane;fontStyle=2;align=center;verticalAlign=top;childLayout=stackLayout;horizontal=1;startSize=26;horizontalStack=0;resizeParent=1;resizeLast=0;collapsible=1;marginBottom=0;rounded=0;shadow=0;strokeWidth=1;fillColor=#e1d5e7;strokeColor=#9673a6;" parent="WIyWlLk6GJQsqaUBKTNV-1" vertex="1">
          <mxGeometry x="930" y="319" width="220" height="152" as="geometry">
            <mxRectangle x="230" y="140" width="160" height="26" as="alternateBounds" />
          </mxGeometry>
        </mxCell>
        <mxCell id="D_atLNyOjQKJW8hiToG2-276" value="+ idPedido: string" style="text;strokeColor=#9673a6;fillColor=#e1d5e7;align=left;verticalAlign=top;spacingLeft=4;spacingRight=4;overflow=hidden;rotatable=0;points=[[0,0.5],[1,0.5]];portConstraint=eastwest;whiteSpace=wrap;html=1;" parent="D_atLNyOjQKJW8hiToG2-275" vertex="1">
          <mxGeometry y="26" width="220" height="26" as="geometry" />
        </mxCell>
        <mxCell id="D_atLNyOjQKJW8hiToG2-277" value="+ idProducto: string" style="text;strokeColor=#9673a6;fillColor=#e1d5e7;align=left;verticalAlign=top;spacingLeft=4;spacingRight=4;overflow=hidden;rotatable=0;points=[[0,0.5],[1,0.5]];portConstraint=eastwest;whiteSpace=wrap;html=1;" parent="D_atLNyOjQKJW8hiToG2-275" vertex="1">
          <mxGeometry y="52" width="220" height="26" as="geometry" />
        </mxCell>
        <mxCell id="D_atLNyOjQKJW8hiToG2-278" value="+ nvTamaño: string" style="text;strokeColor=#9673a6;fillColor=#e1d5e7;align=left;verticalAlign=top;spacingLeft=4;spacingRight=4;overflow=hidden;rotatable=0;points=[[0,0.5],[1,0.5]];portConstraint=eastwest;whiteSpace=wrap;html=1;" parent="D_atLNyOjQKJW8hiToG2-275" vertex="1">
          <mxGeometry y="78" width="220" height="26" as="geometry" />
        </mxCell>
        <mxCell id="D_atLNyOjQKJW8hiToG2-279" value="" style="line;html=1;strokeWidth=1;align=left;verticalAlign=middle;spacingTop=-1;spacingLeft=3;spacingRight=3;rotatable=0;labelPosition=right;points=[];portConstraint=eastwest;fillColor=#e1d5e7;strokeColor=#9673a6;" parent="D_atLNyOjQKJW8hiToG2-275" vertex="1">
          <mxGeometry y="104" width="220" height="8" as="geometry" />
        </mxCell>
        <mxCell id="D_atLNyOjQKJW8hiToG2-280" value="+ agrandarPedido(idPedido, idProducto, nvTamaño): Response" style="text;strokeColor=#9673a6;fillColor=#e1d5e7;align=left;verticalAlign=top;spacingLeft=4;spacingRight=4;overflow=hidden;rotatable=0;points=[[0,0.5],[1,0.5]];portConstraint=eastwest;whiteSpace=wrap;html=1;" parent="D_atLNyOjQKJW8hiToG2-275" vertex="1">
          <mxGeometry y="112" width="220" height="40" as="geometry" />
        </mxCell>
        <mxCell id="D_atLNyOjQKJW8hiToG2-308" value="Pedido" style="swimlane;fontStyle=2;align=center;verticalAlign=top;childLayout=stackLayout;horizontal=1;startSize=26;horizontalStack=0;resizeParent=1;resizeLast=0;collapsible=1;marginBottom=0;rounded=0;shadow=0;strokeWidth=1;fillColor=#e1d5e7;strokeColor=#9673a6;" parent="WIyWlLk6GJQsqaUBKTNV-1" vertex="1">
          <mxGeometry x="1340" y="145" width="160" height="110" as="geometry">
            <mxRectangle x="230" y="140" width="160" height="26" as="alternateBounds" />
          </mxGeometry>
        </mxCell>
        <mxCell id="D_atLNyOjQKJW8hiToG2-309" value="+ nombre: str" style="text;strokeColor=#9673a6;fillColor=#e1d5e7;align=left;verticalAlign=top;spacingLeft=4;spacingRight=4;overflow=hidden;rotatable=0;points=[[0,0.5],[1,0.5]];portConstraint=eastwest;whiteSpace=wrap;html=1;" parent="D_atLNyOjQKJW8hiToG2-308" vertex="1">
          <mxGeometry y="26" width="160" height="26" as="geometry" />
        </mxCell>
        <mxCell id="D_atLNyOjQKJW8hiToG2-310" value="+ precio: int" style="text;strokeColor=#9673a6;fillColor=#e1d5e7;align=left;verticalAlign=top;spacingLeft=4;spacingRight=4;overflow=hidden;rotatable=0;points=[[0,0.5],[1,0.5]];portConstraint=eastwest;whiteSpace=wrap;html=1;" parent="D_atLNyOjQKJW8hiToG2-308" vertex="1">
          <mxGeometry y="52" width="160" height="28" as="geometry" />
        </mxCell>
        <mxCell id="D_atLNyOjQKJW8hiToG2-311" value="+ estado: str" style="text;strokeColor=#9673a6;fillColor=#e1d5e7;align=left;verticalAlign=top;spacingLeft=4;spacingRight=4;overflow=hidden;rotatable=0;points=[[0,0.5],[1,0.5]];portConstraint=eastwest;whiteSpace=wrap;html=1;" parent="D_atLNyOjQKJW8hiToG2-308" vertex="1">
          <mxGeometry y="80" width="160" height="26" as="geometry" />
        </mxCell>
        <mxCell id="D_atLNyOjQKJW8hiToG2-312" value="" style="endArrow=diamondThin;endFill=1;endSize=24;html=1;rounded=0;exitX=0;exitY=0.5;exitDx=0;exitDy=0;entryX=1;entryY=0.5;entryDx=0;entryDy=0;fillColor=#e1d5e7;strokeColor=#000000;" parent="WIyWlLk6GJQsqaUBKTNV-1" source="D_atLNyOjQKJW8hiToG2-310" target="D_atLNyOjQKJW8hiToG2-68" edge="1">
          <mxGeometry width="160" relative="1" as="geometry">
            <mxPoint x="1523" y="301" as="sourcePoint" />
            <mxPoint x="1460" y="299" as="targetPoint" />
          </mxGeometry>
        </mxCell>
        <mxCell id="D_atLNyOjQKJW8hiToG2-316" value="ConsultarProductos" style="swimlane;fontStyle=2;align=center;verticalAlign=top;childLayout=stackLayout;horizontal=1;startSize=26;horizontalStack=0;resizeParent=1;resizeLast=0;collapsible=1;marginBottom=0;rounded=0;shadow=0;strokeWidth=1;fillColor=#ffe6cc;strokeColor=#d79b00;" parent="WIyWlLk6GJQsqaUBKTNV-1" vertex="1">
          <mxGeometry x="590" y="87.5" width="210" height="158" as="geometry">
            <mxRectangle x="230" y="140" width="160" height="26" as="alternateBounds" />
          </mxGeometry>
        </mxCell>
        <mxCell id="D_atLNyOjQKJW8hiToG2-317" value="+ idProducto: str" style="text;strokeColor=#d79b00;fillColor=#ffe6cc;align=left;verticalAlign=top;spacingLeft=4;spacingRight=4;overflow=hidden;rotatable=0;points=[[0,0.5],[1,0.5]];portConstraint=eastwest;whiteSpace=wrap;html=1;" parent="D_atLNyOjQKJW8hiToG2-316" vertex="1">
          <mxGeometry y="26" width="210" height="26" as="geometry" />
        </mxCell>
        <mxCell id="D_atLNyOjQKJW8hiToG2-318" value="+ monto: int" style="text;strokeColor=#d79b00;fillColor=#ffe6cc;align=left;verticalAlign=top;spacingLeft=4;spacingRight=4;overflow=hidden;rotatable=0;points=[[0,0.5],[1,0.5]];portConstraint=eastwest;whiteSpace=wrap;html=1;" parent="D_atLNyOjQKJW8hiToG2-316" vertex="1">
          <mxGeometry y="52" width="210" height="28" as="geometry" />
        </mxCell>
        <mxCell id="D_atLNyOjQKJW8hiToG2-319" value="+ disponibilidad: bool" style="text;strokeColor=#d79b00;fillColor=#ffe6cc;align=left;verticalAlign=top;spacingLeft=4;spacingRight=4;overflow=hidden;rotatable=0;points=[[0,0.5],[1,0.5]];portConstraint=eastwest;whiteSpace=wrap;html=1;" parent="D_atLNyOjQKJW8hiToG2-316" vertex="1">
          <mxGeometry y="80" width="210" height="28" as="geometry" />
        </mxCell>
        <mxCell id="D_atLNyOjQKJW8hiToG2-320" value="" style="line;html=1;strokeWidth=1;align=left;verticalAlign=middle;spacingTop=-1;spacingLeft=3;spacingRight=3;rotatable=0;labelPosition=right;points=[];portConstraint=eastwest;fillColor=#ffe6cc;strokeColor=#d79b00;" parent="D_atLNyOjQKJW8hiToG2-316" vertex="1">
          <mxGeometry y="108" width="210" height="8" as="geometry" />
        </mxCell>
        <mxCell id="D_atLNyOjQKJW8hiToG2-321" value="+ consultaProducto(idPedido, monto, disponibilidad): Response" style="text;strokeColor=#d79b00;fillColor=#ffe6cc;align=left;verticalAlign=top;spacingLeft=4;spacingRight=4;overflow=hidden;rotatable=0;points=[[0,0.5],[1,0.5]];portConstraint=eastwest;whiteSpace=wrap;html=1;" parent="D_atLNyOjQKJW8hiToG2-316" vertex="1">
          <mxGeometry y="116" width="210" height="42" as="geometry" />
        </mxCell>
        <mxCell id="D_atLNyOjQKJW8hiToG2-322" value="HistorialPedidosDomicilio" style="swimlane;fontStyle=2;align=center;verticalAlign=top;childLayout=stackLayout;horizontal=1;startSize=26;horizontalStack=0;resizeParent=1;resizeLast=0;collapsible=1;marginBottom=0;rounded=0;shadow=0;strokeWidth=1;fillColor=#ffe6cc;strokeColor=#d79b00;" parent="WIyWlLk6GJQsqaUBKTNV-1" vertex="1">
          <mxGeometry x="400" y="-110" width="240" height="136" as="geometry">
            <mxRectangle x="230" y="140" width="160" height="26" as="alternateBounds" />
          </mxGeometry>
        </mxCell>
        <mxCell id="D_atLNyOjQKJW8hiToG2-323" value="+ idProducto: str" style="text;strokeColor=#d79b00;fillColor=#ffe6cc;align=left;verticalAlign=top;spacingLeft=4;spacingRight=4;overflow=hidden;rotatable=0;points=[[0,0.5],[1,0.5]];portConstraint=eastwest;whiteSpace=wrap;html=1;" parent="D_atLNyOjQKJW8hiToG2-322" vertex="1">
          <mxGeometry y="26" width="240" height="26" as="geometry" />
        </mxCell>
        <mxCell id="D_atLNyOjQKJW8hiToG2-324" value="+ Precio: int" style="text;strokeColor=#d79b00;fillColor=#ffe6cc;align=left;verticalAlign=top;spacingLeft=4;spacingRight=4;overflow=hidden;rotatable=0;points=[[0,0.5],[1,0.5]];portConstraint=eastwest;whiteSpace=wrap;html=1;" parent="D_atLNyOjQKJW8hiToG2-322" vertex="1">
          <mxGeometry y="52" width="240" height="28" as="geometry" />
        </mxCell>
        <mxCell id="D_atLNyOjQKJW8hiToG2-325" value="+ Disponibilidad: str" style="text;strokeColor=#d79b00;fillColor=#ffe6cc;align=left;verticalAlign=top;spacingLeft=4;spacingRight=4;overflow=hidden;rotatable=0;points=[[0,0.5],[1,0.5]];portConstraint=eastwest;whiteSpace=wrap;html=1;" parent="D_atLNyOjQKJW8hiToG2-322" vertex="1">
          <mxGeometry y="80" width="240" height="28" as="geometry" />
        </mxCell>
        <mxCell id="D_atLNyOjQKJW8hiToG2-326" value="+ Accion: str" style="text;strokeColor=#d79b00;fillColor=#ffe6cc;align=left;verticalAlign=top;spacingLeft=4;spacingRight=4;overflow=hidden;rotatable=0;points=[[0,0.5],[1,0.5]];portConstraint=eastwest;whiteSpace=wrap;html=1;" parent="D_atLNyOjQKJW8hiToG2-322" vertex="1">
          <mxGeometry y="108" width="240" height="28" as="geometry" />
        </mxCell>
        <mxCell id="D_atLNyOjQKJW8hiToG2-329" value="RegistroPedido" style="swimlane;fontStyle=2;align=center;verticalAlign=top;childLayout=stackLayout;horizontal=1;startSize=26;horizontalStack=0;resizeParent=1;resizeLast=0;collapsible=1;marginBottom=0;rounded=0;shadow=0;strokeWidth=1;fillColor=#ffe6cc;strokeColor=#d79b00;" parent="WIyWlLk6GJQsqaUBKTNV-1" vertex="1">
          <mxGeometry x="260" y="257.5" width="210" height="158" as="geometry">
            <mxRectangle x="230" y="140" width="160" height="26" as="alternateBounds" />
          </mxGeometry>
        </mxCell>
        <mxCell id="D_atLNyOjQKJW8hiToG2-330" value="+ idPedido: str" style="text;strokeColor=#d79b00;fillColor=#ffe6cc;align=left;verticalAlign=top;spacingLeft=4;spacingRight=4;overflow=hidden;rotatable=0;points=[[0,0.5],[1,0.5]];portConstraint=eastwest;whiteSpace=wrap;html=1;" parent="D_atLNyOjQKJW8hiToG2-329" vertex="1">
          <mxGeometry y="26" width="210" height="26" as="geometry" />
        </mxCell>
        <mxCell id="D_atLNyOjQKJW8hiToG2-331" value="+ idCliente: int" style="text;strokeColor=#d79b00;fillColor=#ffe6cc;align=left;verticalAlign=top;spacingLeft=4;spacingRight=4;overflow=hidden;rotatable=0;points=[[0,0.5],[1,0.5]];portConstraint=eastwest;whiteSpace=wrap;html=1;" parent="D_atLNyOjQKJW8hiToG2-329" vertex="1">
          <mxGeometry y="52" width="210" height="28" as="geometry" />
        </mxCell>
        <mxCell id="D_atLNyOjQKJW8hiToG2-332" value="+ direccion: str" style="text;strokeColor=#d79b00;fillColor=#ffe6cc;align=left;verticalAlign=top;spacingLeft=4;spacingRight=4;overflow=hidden;rotatable=0;points=[[0,0.5],[1,0.5]];portConstraint=eastwest;whiteSpace=wrap;html=1;" parent="D_atLNyOjQKJW8hiToG2-329" vertex="1">
          <mxGeometry y="80" width="210" height="28" as="geometry" />
        </mxCell>
        <mxCell id="D_atLNyOjQKJW8hiToG2-333" value="" style="line;html=1;strokeWidth=1;align=left;verticalAlign=middle;spacingTop=-1;spacingLeft=3;spacingRight=3;rotatable=0;labelPosition=right;points=[];portConstraint=eastwest;fillColor=#ffe6cc;strokeColor=#d79b00;" parent="D_atLNyOjQKJW8hiToG2-329" vertex="1">
          <mxGeometry y="108" width="210" height="8" as="geometry" />
        </mxCell>
        <mxCell id="D_atLNyOjQKJW8hiToG2-334" value="+ registrarPedido(idPedido, idCliente, direccion): Response" style="text;strokeColor=#d79b00;fillColor=#ffe6cc;align=left;verticalAlign=top;spacingLeft=4;spacingRight=4;overflow=hidden;rotatable=0;points=[[0,0.5],[1,0.5]];portConstraint=eastwest;whiteSpace=wrap;html=1;" parent="D_atLNyOjQKJW8hiToG2-329" vertex="1">
          <mxGeometry y="116" width="210" height="42" as="geometry" />
        </mxCell>
        <mxCell id="D_atLNyOjQKJW8hiToG2-340" value="Usuario Cajero" style="swimlane;fontStyle=2;align=center;verticalAlign=top;childLayout=stackLayout;horizontal=1;startSize=26;horizontalStack=0;resizeParent=1;resizeLast=0;collapsible=1;marginBottom=0;rounded=0;shadow=0;strokeWidth=1;fillColor=#d5e8d4;strokeColor=#82b366;" parent="WIyWlLk6GJQsqaUBKTNV-1" vertex="1">
          <mxGeometry x="1934" y="-240" width="130" height="80" as="geometry">
            <mxRectangle x="230" y="140" width="160" height="26" as="alternateBounds" />
          </mxGeometry>
        </mxCell>
        <mxCell id="D_atLNyOjQKJW8hiToG2-341" value="+ email: str" style="text;strokeColor=#82b366;fillColor=#d5e8d4;align=left;verticalAlign=top;spacingLeft=4;spacingRight=4;overflow=hidden;rotatable=0;points=[[0,0.5],[1,0.5]];portConstraint=eastwest;whiteSpace=wrap;html=1;" parent="D_atLNyOjQKJW8hiToG2-340" vertex="1">
          <mxGeometry y="26" width="130" height="26" as="geometry" />
        </mxCell>
        <mxCell id="D_atLNyOjQKJW8hiToG2-342" value="+ pass: str" style="text;strokeColor=#82b366;fillColor=#d5e8d4;align=left;verticalAlign=top;spacingLeft=4;spacingRight=4;overflow=hidden;rotatable=0;points=[[0,0.5],[1,0.5]];portConstraint=eastwest;whiteSpace=wrap;html=1;" parent="D_atLNyOjQKJW8hiToG2-340" vertex="1">
          <mxGeometry y="52" width="130" height="26" as="geometry" />
        </mxCell>
        <mxCell id="D_atLNyOjQKJW8hiToG2-343" value="Usuario Encargado" style="swimlane;fontStyle=2;align=center;verticalAlign=top;childLayout=stackLayout;horizontal=1;startSize=26;horizontalStack=0;resizeParent=1;resizeLast=0;collapsible=1;marginBottom=0;rounded=0;shadow=0;strokeWidth=1;fillColor=#ffe6cc;strokeColor=#d79b00;" parent="WIyWlLk6GJQsqaUBKTNV-1" vertex="1">
          <mxGeometry x="455" y="-240" width="130" height="80" as="geometry">
            <mxRectangle x="230" y="140" width="160" height="26" as="alternateBounds" />
          </mxGeometry>
        </mxCell>
        <mxCell id="D_atLNyOjQKJW8hiToG2-344" value="+ email: str" style="text;strokeColor=#d79b00;fillColor=#ffe6cc;align=left;verticalAlign=top;spacingLeft=4;spacingRight=4;overflow=hidden;rotatable=0;points=[[0,0.5],[1,0.5]];portConstraint=eastwest;whiteSpace=wrap;html=1;" parent="D_atLNyOjQKJW8hiToG2-343" vertex="1">
          <mxGeometry y="26" width="130" height="26" as="geometry" />
        </mxCell>
        <mxCell id="D_atLNyOjQKJW8hiToG2-345" value="+ pass: str" style="text;strokeColor=#d79b00;fillColor=#ffe6cc;align=left;verticalAlign=top;spacingLeft=4;spacingRight=4;overflow=hidden;rotatable=0;points=[[0,0.5],[1,0.5]];portConstraint=eastwest;whiteSpace=wrap;html=1;" parent="D_atLNyOjQKJW8hiToG2-343" vertex="1">
          <mxGeometry y="52" width="130" height="26" as="geometry" />
        </mxCell>
        <mxCell id="D_atLNyOjQKJW8hiToG2-346" value="    ActualizarHistorial" style="swimlane;fontStyle=2;align=center;verticalAlign=top;childLayout=stackLayout;horizontal=1;startSize=26;horizontalStack=0;resizeParent=1;resizeLast=0;collapsible=1;marginBottom=0;rounded=0;shadow=0;strokeWidth=1;fillColor=#ffe6cc;strokeColor=#d79b00;" parent="WIyWlLk6GJQsqaUBKTNV-1" vertex="1">
          <mxGeometry x="260" y="87.5" width="210" height="126" as="geometry">
            <mxRectangle x="230" y="140" width="160" height="26" as="alternateBounds" />
          </mxGeometry>
        </mxCell>
        <mxCell id="D_atLNyOjQKJW8hiToG2-347" value="+ idPedido: string" style="text;strokeColor=#d79b00;fillColor=#ffe6cc;align=left;verticalAlign=top;spacingLeft=4;spacingRight=4;overflow=hidden;rotatable=0;points=[[0,0.5],[1,0.5]];portConstraint=eastwest;whiteSpace=wrap;html=1;" parent="D_atLNyOjQKJW8hiToG2-346" vertex="1">
          <mxGeometry y="26" width="210" height="26" as="geometry" />
        </mxCell>
        <mxCell id="D_atLNyOjQKJW8hiToG2-348" value="+ estado: string" style="text;strokeColor=#d79b00;fillColor=#ffe6cc;align=left;verticalAlign=top;spacingLeft=4;spacingRight=4;overflow=hidden;rotatable=0;points=[[0,0.5],[1,0.5]];portConstraint=eastwest;whiteSpace=wrap;html=1;" parent="D_atLNyOjQKJW8hiToG2-346" vertex="1">
          <mxGeometry y="52" width="210" height="26" as="geometry" />
        </mxCell>
        <mxCell id="D_atLNyOjQKJW8hiToG2-349" value="" style="line;html=1;strokeWidth=1;align=left;verticalAlign=middle;spacingTop=-1;spacingLeft=3;spacingRight=3;rotatable=0;labelPosition=right;points=[];portConstraint=eastwest;fillColor=#ffe6cc;strokeColor=#d79b00;" parent="D_atLNyOjQKJW8hiToG2-346" vertex="1">
          <mxGeometry y="78" width="210" height="8" as="geometry" />
        </mxCell>
        <mxCell id="D_atLNyOjQKJW8hiToG2-350" value="+ actualizarHistorial(idPedido, estado): Response" style="text;strokeColor=#d79b00;fillColor=#ffe6cc;align=left;verticalAlign=top;spacingLeft=4;spacingRight=4;overflow=hidden;rotatable=0;points=[[0,0.5],[1,0.5]];portConstraint=eastwest;whiteSpace=wrap;html=1;" parent="D_atLNyOjQKJW8hiToG2-346" vertex="1">
          <mxGeometry y="86" width="210" height="40" as="geometry" />
        </mxCell>
        <mxCell id="D_atLNyOjQKJW8hiToG2-351" value="Consultar" style="swimlane;fontStyle=2;align=center;verticalAlign=top;childLayout=stackLayout;horizontal=1;startSize=26;horizontalStack=0;resizeParent=1;resizeLast=0;collapsible=1;marginBottom=0;rounded=0;shadow=0;strokeWidth=1;fillColor=#d5e8d4;strokeColor=#82b366;" parent="WIyWlLk6GJQsqaUBKTNV-1" vertex="1">
          <mxGeometry x="1740" y="-93.5" width="230" height="87" as="geometry">
            <mxRectangle x="230" y="140" width="160" height="26" as="alternateBounds" />
          </mxGeometry>
        </mxCell>
        <mxCell id="D_atLNyOjQKJW8hiToG2-352" value="+ idCliente: string" style="text;strokeColor=#82b366;fillColor=#d5e8d4;align=left;verticalAlign=top;spacingLeft=4;spacingRight=4;overflow=hidden;rotatable=0;points=[[0,0.5],[1,0.5]];portConstraint=eastwest;whiteSpace=wrap;html=1;" parent="D_atLNyOjQKJW8hiToG2-351" vertex="1">
          <mxGeometry y="26" width="230" height="26" as="geometry" />
        </mxCell>
        <mxCell id="D_atLNyOjQKJW8hiToG2-353" value="" style="line;html=1;strokeWidth=1;align=left;verticalAlign=middle;spacingTop=-1;spacingLeft=3;spacingRight=3;rotatable=0;labelPosition=right;points=[];portConstraint=eastwest;fillColor=#d5e8d4;strokeColor=#82b366;" parent="D_atLNyOjQKJW8hiToG2-351" vertex="1">
          <mxGeometry y="52" width="230" height="8" as="geometry" />
        </mxCell>
        <mxCell id="D_atLNyOjQKJW8hiToG2-354" value="+ mostrarHistorial(idCliente): Response" style="text;strokeColor=#82b366;fillColor=#d5e8d4;align=left;verticalAlign=top;spacingLeft=4;spacingRight=4;overflow=hidden;rotatable=0;points=[[0,0.5],[1,0.5]];portConstraint=eastwest;whiteSpace=wrap;html=1;" parent="D_atLNyOjQKJW8hiToG2-351" vertex="1">
          <mxGeometry y="60" width="230" height="24" as="geometry" />
        </mxCell>
        <mxCell id="D_atLNyOjQKJW8hiToG2-358" value="RegistrarPedido" style="swimlane;fontStyle=2;align=center;verticalAlign=top;childLayout=stackLayout;horizontal=1;startSize=26;horizontalStack=0;resizeParent=1;resizeLast=0;collapsible=1;marginBottom=0;rounded=0;shadow=0;strokeWidth=1;fillColor=#d5e8d4;strokeColor=#82b366;" parent="WIyWlLk6GJQsqaUBKTNV-1" vertex="1">
          <mxGeometry x="2055" y="67.5" width="230" height="178" as="geometry">
            <mxRectangle x="230" y="140" width="160" height="26" as="alternateBounds" />
          </mxGeometry>
        </mxCell>
        <mxCell id="D_atLNyOjQKJW8hiToG2-359" value="+ idCliente: string" style="text;strokeColor=#82b366;fillColor=#d5e8d4;align=left;verticalAlign=top;spacingLeft=4;spacingRight=4;overflow=hidden;rotatable=0;points=[[0,0.5],[1,0.5]];portConstraint=eastwest;whiteSpace=wrap;html=1;" parent="D_atLNyOjQKJW8hiToG2-358" vertex="1">
          <mxGeometry y="26" width="230" height="26" as="geometry" />
        </mxCell>
        <mxCell id="D_atLNyOjQKJW8hiToG2-360" value="+ monto: int" style="text;strokeColor=#82b366;fillColor=#d5e8d4;align=left;verticalAlign=top;spacingLeft=4;spacingRight=4;overflow=hidden;rotatable=0;points=[[0,0.5],[1,0.5]];portConstraint=eastwest;whiteSpace=wrap;html=1;" parent="D_atLNyOjQKJW8hiToG2-358" vertex="1">
          <mxGeometry y="52" width="230" height="26" as="geometry" />
        </mxCell>
        <mxCell id="D_atLNyOjQKJW8hiToG2-361" value="+ fecha: DateTime" style="text;strokeColor=#82b366;fillColor=#d5e8d4;align=left;verticalAlign=top;spacingLeft=4;spacingRight=4;overflow=hidden;rotatable=0;points=[[0,0.5],[1,0.5]];portConstraint=eastwest;whiteSpace=wrap;html=1;" parent="D_atLNyOjQKJW8hiToG2-358" vertex="1">
          <mxGeometry y="78" width="230" height="26" as="geometry" />
        </mxCell>
        <mxCell id="D_atLNyOjQKJW8hiToG2-362" value="+ metodoPago: string" style="text;strokeColor=#82b366;fillColor=#d5e8d4;align=left;verticalAlign=top;spacingLeft=4;spacingRight=4;overflow=hidden;rotatable=0;points=[[0,0.5],[1,0.5]];portConstraint=eastwest;whiteSpace=wrap;html=1;" parent="D_atLNyOjQKJW8hiToG2-358" vertex="1">
          <mxGeometry y="104" width="230" height="26" as="geometry" />
        </mxCell>
        <mxCell id="D_atLNyOjQKJW8hiToG2-363" value="" style="line;html=1;strokeWidth=1;align=left;verticalAlign=middle;spacingTop=-1;spacingLeft=3;spacingRight=3;rotatable=0;labelPosition=right;points=[];portConstraint=eastwest;fillColor=#d5e8d4;strokeColor=#82b366;" parent="D_atLNyOjQKJW8hiToG2-358" vertex="1">
          <mxGeometry y="130" width="230" height="8" as="geometry" />
        </mxCell>
        <mxCell id="D_atLNyOjQKJW8hiToG2-364" value="+ registrarpedido(idCliente, monto, fecha, metodoPago): Response" style="text;strokeColor=#82b366;fillColor=#d5e8d4;align=left;verticalAlign=top;spacingLeft=4;spacingRight=4;overflow=hidden;rotatable=0;points=[[0,0.5],[1,0.5]];portConstraint=eastwest;whiteSpace=wrap;html=1;" parent="D_atLNyOjQKJW8hiToG2-358" vertex="1">
          <mxGeometry y="138" width="230" height="40" as="geometry" />
        </mxCell>
        <mxCell id="D_atLNyOjQKJW8hiToG2-365" value="RegistroPedidosConfirmados" style="swimlane;fontStyle=2;align=center;verticalAlign=top;childLayout=stackLayout;horizontal=1;startSize=26;horizontalStack=0;resizeParent=1;resizeLast=0;collapsible=1;marginBottom=0;rounded=0;shadow=0;strokeWidth=1;fillColor=#d5e8d4;strokeColor=#82b366;" parent="WIyWlLk6GJQsqaUBKTNV-1" vertex="1">
          <mxGeometry x="2050" y="-116" width="240" height="130" as="geometry">
            <mxRectangle x="230" y="140" width="160" height="26" as="alternateBounds" />
          </mxGeometry>
        </mxCell>
        <mxCell id="D_atLNyOjQKJW8hiToG2-366" value="+ idPedido: str" style="text;strokeColor=#82b366;fillColor=#d5e8d4;align=left;verticalAlign=top;spacingLeft=4;spacingRight=4;overflow=hidden;rotatable=0;points=[[0,0.5],[1,0.5]];portConstraint=eastwest;whiteSpace=wrap;html=1;" parent="D_atLNyOjQKJW8hiToG2-365" vertex="1">
          <mxGeometry y="26" width="240" height="26" as="geometry" />
        </mxCell>
        <mxCell id="D_atLNyOjQKJW8hiToG2-367" value="+ monto: int" style="text;strokeColor=#82b366;fillColor=#d5e8d4;align=left;verticalAlign=top;spacingLeft=4;spacingRight=4;overflow=hidden;rotatable=0;points=[[0,0.5],[1,0.5]];portConstraint=eastwest;whiteSpace=wrap;html=1;" parent="D_atLNyOjQKJW8hiToG2-365" vertex="1">
          <mxGeometry y="52" width="240" height="28" as="geometry" />
        </mxCell>
        <mxCell id="D_atLNyOjQKJW8hiToG2-368" value="" style="line;html=1;strokeWidth=1;align=left;verticalAlign=middle;spacingTop=-1;spacingLeft=3;spacingRight=3;rotatable=0;labelPosition=right;points=[];portConstraint=eastwest;fillColor=#d5e8d4;strokeColor=#82b366;" parent="D_atLNyOjQKJW8hiToG2-365" vertex="1">
          <mxGeometry y="80" width="240" height="8" as="geometry" />
        </mxCell>
        <mxCell id="D_atLNyOjQKJW8hiToG2-369" value="+ actualizarRegistro(idPedido, monto): Response" style="text;strokeColor=#82b366;fillColor=#d5e8d4;align=left;verticalAlign=top;spacingLeft=4;spacingRight=4;overflow=hidden;rotatable=0;points=[[0,0.5],[1,0.5]];portConstraint=eastwest;whiteSpace=wrap;html=1;" parent="D_atLNyOjQKJW8hiToG2-365" vertex="1">
          <mxGeometry y="88" width="240" height="42" as="geometry" />
        </mxCell>
        <mxCell id="D_atLNyOjQKJW8hiToG2-374" value="Pedido" style="swimlane;fontStyle=2;align=center;verticalAlign=top;childLayout=stackLayout;horizontal=1;startSize=26;horizontalStack=0;resizeParent=1;resizeLast=0;collapsible=1;marginBottom=0;rounded=0;shadow=0;strokeWidth=1;fillColor=#d5e8d4;strokeColor=#82b366;" parent="WIyWlLk6GJQsqaUBKTNV-1" vertex="1">
          <mxGeometry x="2375" y="170" width="162" height="140" as="geometry">
            <mxRectangle x="230" y="140" width="160" height="26" as="alternateBounds" />
          </mxGeometry>
        </mxCell>
        <mxCell id="D_atLNyOjQKJW8hiToG2-375" value="+ idProducto: str" style="text;strokeColor=#82b366;fillColor=#d5e8d4;align=left;verticalAlign=top;spacingLeft=4;spacingRight=4;overflow=hidden;rotatable=0;points=[[0,0.5],[1,0.5]];portConstraint=eastwest;whiteSpace=wrap;html=1;" parent="D_atLNyOjQKJW8hiToG2-374" vertex="1">
          <mxGeometry y="26" width="162" height="26" as="geometry" />
        </mxCell>
        <mxCell id="D_atLNyOjQKJW8hiToG2-376" value="+ precio: int" style="text;strokeColor=#82b366;fillColor=#d5e8d4;align=left;verticalAlign=top;spacingLeft=4;spacingRight=4;overflow=hidden;rotatable=0;points=[[0,0.5],[1,0.5]];portConstraint=eastwest;whiteSpace=wrap;html=1;" parent="D_atLNyOjQKJW8hiToG2-374" vertex="1">
          <mxGeometry y="52" width="162" height="28" as="geometry" />
        </mxCell>
        <mxCell id="D_atLNyOjQKJW8hiToG2-377" value="" style="line;html=1;strokeWidth=1;align=left;verticalAlign=middle;spacingTop=-1;spacingLeft=3;spacingRight=3;rotatable=0;labelPosition=right;points=[];portConstraint=eastwest;fillColor=#d5e8d4;strokeColor=#82b366;" parent="D_atLNyOjQKJW8hiToG2-374" vertex="1">
          <mxGeometry y="80" width="162" height="8" as="geometry" />
        </mxCell>
        <mxCell id="D_atLNyOjQKJW8hiToG2-378" value="+ AgregarProducto&lt;div&gt;(idProducto, monto): Response&lt;/div&gt;" style="text;strokeColor=#82b366;fillColor=#d5e8d4;align=left;verticalAlign=top;spacingLeft=4;spacingRight=4;overflow=hidden;rotatable=0;points=[[0,0.5],[1,0.5]];portConstraint=eastwest;whiteSpace=wrap;html=1;" parent="D_atLNyOjQKJW8hiToG2-374" vertex="1">
          <mxGeometry y="88" width="162" height="52" as="geometry" />
        </mxCell>
        <mxCell id="D_atLNyOjQKJW8hiToG2-379" value="Producto" style="swimlane;fontStyle=2;align=center;verticalAlign=top;childLayout=stackLayout;horizontal=1;startSize=26;horizontalStack=0;resizeParent=1;resizeLast=0;collapsible=1;marginBottom=0;rounded=0;shadow=0;strokeWidth=1;fillColor=#d5e8d4;strokeColor=#82b366;" parent="WIyWlLk6GJQsqaUBKTNV-1" vertex="1">
          <mxGeometry x="2600" y="170" width="160" height="110" as="geometry">
            <mxRectangle x="230" y="140" width="160" height="26" as="alternateBounds" />
          </mxGeometry>
        </mxCell>
        <mxCell id="D_atLNyOjQKJW8hiToG2-380" value="+ nombre: str" style="text;strokeColor=#82b366;fillColor=#d5e8d4;align=left;verticalAlign=top;spacingLeft=4;spacingRight=4;overflow=hidden;rotatable=0;points=[[0,0.5],[1,0.5]];portConstraint=eastwest;whiteSpace=wrap;html=1;" parent="D_atLNyOjQKJW8hiToG2-379" vertex="1">
          <mxGeometry y="26" width="160" height="26" as="geometry" />
        </mxCell>
        <mxCell id="D_atLNyOjQKJW8hiToG2-381" value="+ precio: int" style="text;strokeColor=#82b366;fillColor=#d5e8d4;align=left;verticalAlign=top;spacingLeft=4;spacingRight=4;overflow=hidden;rotatable=0;points=[[0,0.5],[1,0.5]];portConstraint=eastwest;whiteSpace=wrap;html=1;" parent="D_atLNyOjQKJW8hiToG2-379" vertex="1">
          <mxGeometry y="52" width="160" height="28" as="geometry" />
        </mxCell>
        <mxCell id="D_atLNyOjQKJW8hiToG2-382" value="+ categoria: str" style="text;strokeColor=#82b366;fillColor=#d5e8d4;align=left;verticalAlign=top;spacingLeft=4;spacingRight=4;overflow=hidden;rotatable=0;points=[[0,0.5],[1,0.5]];portConstraint=eastwest;whiteSpace=wrap;html=1;" parent="D_atLNyOjQKJW8hiToG2-379" vertex="1">
          <mxGeometry y="80" width="160" height="26" as="geometry" />
        </mxCell>
        <mxCell id="D_atLNyOjQKJW8hiToG2-383" value="Precio" style="swimlane;fontStyle=2;align=center;verticalAlign=top;childLayout=stackLayout;horizontal=1;startSize=26;horizontalStack=0;resizeParent=1;resizeLast=0;collapsible=1;marginBottom=0;rounded=0;shadow=0;strokeWidth=1;fillColor=#d5e8d4;strokeColor=#82b366;" parent="WIyWlLk6GJQsqaUBKTNV-1" vertex="1">
          <mxGeometry x="2840" y="170" width="160" height="114" as="geometry">
            <mxRectangle x="230" y="140" width="160" height="26" as="alternateBounds" />
          </mxGeometry>
        </mxCell>
        <mxCell id="D_atLNyOjQKJW8hiToG2-384" value="+ fecha: timestamp" style="text;strokeColor=#82b366;fillColor=#d5e8d4;align=left;verticalAlign=top;spacingLeft=4;spacingRight=4;overflow=hidden;rotatable=0;points=[[0,0.5],[1,0.5]];portConstraint=eastwest;whiteSpace=wrap;html=1;" parent="D_atLNyOjQKJW8hiToG2-383" vertex="1">
          <mxGeometry y="26" width="160" height="26" as="geometry" />
        </mxCell>
        <mxCell id="D_atLNyOjQKJW8hiToG2-385" value="+ precio: int" style="text;strokeColor=#82b366;fillColor=#d5e8d4;align=left;verticalAlign=top;spacingLeft=4;spacingRight=4;overflow=hidden;rotatable=0;points=[[0,0.5],[1,0.5]];portConstraint=eastwest;whiteSpace=wrap;html=1;" parent="D_atLNyOjQKJW8hiToG2-383" vertex="1">
          <mxGeometry y="52" width="160" height="28" as="geometry" />
        </mxCell>
        <mxCell id="D_atLNyOjQKJW8hiToG2-386" value="+ idProducto: producto" style="text;strokeColor=#82b366;fillColor=#d5e8d4;align=left;verticalAlign=top;spacingLeft=4;spacingRight=4;overflow=hidden;rotatable=0;points=[[0,0.5],[1,0.5]];portConstraint=eastwest;whiteSpace=wrap;html=1;" parent="D_atLNyOjQKJW8hiToG2-383" vertex="1">
          <mxGeometry y="80" width="160" height="26" as="geometry" />
        </mxCell>
        <mxCell id="D_atLNyOjQKJW8hiToG2-387" value="" style="endArrow=diamondThin;endFill=1;endSize=24;html=1;rounded=0;entryX=1;entryY=0.5;entryDx=0;entryDy=0;exitX=0;exitY=0.5;exitDx=0;exitDy=0;fillColor=#d5e8d4;strokeColor=#000000;" parent="WIyWlLk6GJQsqaUBKTNV-1" source="D_atLNyOjQKJW8hiToG2-381" target="D_atLNyOjQKJW8hiToG2-376" edge="1">
          <mxGeometry width="160" relative="1" as="geometry">
            <mxPoint x="2133" y="544" as="sourcePoint" />
            <mxPoint x="2293" y="544" as="targetPoint" />
          </mxGeometry>
        </mxCell>
        <mxCell id="D_atLNyOjQKJW8hiToG2-388" value="" style="endArrow=diamondThin;endFill=1;endSize=24;html=1;rounded=0;entryX=1;entryY=0.5;entryDx=0;entryDy=0;exitX=0;exitY=0.5;exitDx=0;exitDy=0;fillColor=#d5e8d4;strokeColor=#000000;" parent="WIyWlLk6GJQsqaUBKTNV-1" source="D_atLNyOjQKJW8hiToG2-385" target="D_atLNyOjQKJW8hiToG2-381" edge="1">
          <mxGeometry width="160" relative="1" as="geometry">
            <mxPoint x="2443" y="524" as="sourcePoint" />
            <mxPoint x="2363" y="524" as="targetPoint" />
          </mxGeometry>
        </mxCell>
        <mxCell id="D_atLNyOjQKJW8hiToG2-389" value="RegistroRetiroPedidos" style="swimlane;fontStyle=2;align=center;verticalAlign=top;childLayout=stackLayout;horizontal=1;startSize=26;horizontalStack=0;resizeParent=1;resizeLast=0;collapsible=1;marginBottom=0;rounded=0;shadow=0;strokeWidth=1;fillColor=#d5e8d4;strokeColor=#82b366;" parent="WIyWlLk6GJQsqaUBKTNV-1" vertex="1">
          <mxGeometry x="2350" y="-116" width="210" height="240" as="geometry">
            <mxRectangle x="230" y="140" width="160" height="26" as="alternateBounds" />
          </mxGeometry>
        </mxCell>
        <mxCell id="D_atLNyOjQKJW8hiToG2-390" value="+ idPedido: str" style="text;strokeColor=#82b366;fillColor=#d5e8d4;align=left;verticalAlign=top;spacingLeft=4;spacingRight=4;overflow=hidden;rotatable=0;points=[[0,0.5],[1,0.5]];portConstraint=eastwest;whiteSpace=wrap;html=1;" parent="D_atLNyOjQKJW8hiToG2-389" vertex="1">
          <mxGeometry y="26" width="210" height="26" as="geometry" />
        </mxCell>
        <mxCell id="D_atLNyOjQKJW8hiToG2-391" value="+ fecha: dateTime" style="text;strokeColor=#82b366;fillColor=#d5e8d4;align=left;verticalAlign=top;spacingLeft=4;spacingRight=4;overflow=hidden;rotatable=0;points=[[0,0.5],[1,0.5]];portConstraint=eastwest;whiteSpace=wrap;html=1;" parent="D_atLNyOjQKJW8hiToG2-389" vertex="1">
          <mxGeometry y="52" width="210" height="26" as="geometry" />
        </mxCell>
        <mxCell id="D_atLNyOjQKJW8hiToG2-392" value="+ confirmado: str" style="text;strokeColor=#82b366;fillColor=#d5e8d4;align=left;verticalAlign=top;spacingLeft=4;spacingRight=4;overflow=hidden;rotatable=0;points=[[0,0.5],[1,0.5]];portConstraint=eastwest;whiteSpace=wrap;html=1;" parent="D_atLNyOjQKJW8hiToG2-389" vertex="1">
          <mxGeometry y="78" width="210" height="30" as="geometry" />
        </mxCell>
        <mxCell id="D_atLNyOjQKJW8hiToG2-393" value="+ estado: str" style="text;strokeColor=#82b366;fillColor=#d5e8d4;align=left;verticalAlign=top;spacingLeft=4;spacingRight=4;overflow=hidden;rotatable=0;points=[[0,0.5],[1,0.5]];portConstraint=eastwest;whiteSpace=wrap;html=1;" parent="D_atLNyOjQKJW8hiToG2-389" vertex="1">
          <mxGeometry y="108" width="210" height="26" as="geometry" />
        </mxCell>
        <mxCell id="D_atLNyOjQKJW8hiToG2-394" value="" style="line;html=1;strokeWidth=1;align=left;verticalAlign=middle;spacingTop=-1;spacingLeft=3;spacingRight=3;rotatable=0;labelPosition=right;points=[];portConstraint=eastwest;fillColor=#d5e8d4;strokeColor=#82b366;" parent="D_atLNyOjQKJW8hiToG2-389" vertex="1">
          <mxGeometry y="134" width="210" height="8" as="geometry" />
        </mxCell>
        <mxCell id="D_atLNyOjQKJW8hiToG2-395" value="+ AgregarPedido(idPedido, fecha, confirmado, estado): Response" style="text;strokeColor=#82b366;fillColor=#d5e8d4;align=left;verticalAlign=top;spacingLeft=4;spacingRight=4;overflow=hidden;rotatable=0;points=[[0,0.5],[1,0.5]];portConstraint=eastwest;whiteSpace=wrap;html=1;" parent="D_atLNyOjQKJW8hiToG2-389" vertex="1">
          <mxGeometry y="142" width="210" height="42" as="geometry" />
        </mxCell>
        <mxCell id="D_atLNyOjQKJW8hiToG2-396" value="+ ActualizarRegistro(idPedido, fecha, confirmado, estado): Response" style="text;strokeColor=#82b366;fillColor=#d5e8d4;align=left;verticalAlign=top;spacingLeft=4;spacingRight=4;overflow=hidden;rotatable=0;points=[[0,0.5],[1,0.5]];portConstraint=eastwest;whiteSpace=wrap;html=1;" parent="D_atLNyOjQKJW8hiToG2-389" vertex="1">
          <mxGeometry y="184" width="210" height="46" as="geometry" />
        </mxCell>
        <mxCell id="D_atLNyOjQKJW8hiToG2-397" value="" style="endArrow=diamondThin;endFill=1;endSize=24;html=1;rounded=0;exitX=0.5;exitY=0;exitDx=0;exitDy=0;entryX=0.5;entryY=1;entryDx=0;entryDy=0;fillColor=#d5e8d4;strokeColor=#000000;" parent="WIyWlLk6GJQsqaUBKTNV-1" source="D_atLNyOjQKJW8hiToG2-374" target="D_atLNyOjQKJW8hiToG2-389" edge="1">
          <mxGeometry width="160" relative="1" as="geometry">
            <mxPoint x="2812" y="144" as="sourcePoint" />
            <mxPoint x="2455" y="130" as="targetPoint" />
          </mxGeometry>
        </mxCell>
        <mxCell id="CIufKCW6qUsmyP6EedrH-6" value="" style="endArrow=diamondThin;endFill=0;endSize=24;html=1;rounded=0;exitX=0.5;exitY=0;exitDx=0;exitDy=0;entryX=0.5;entryY=1;entryDx=0;entryDy=0;" edge="1" parent="WIyWlLk6GJQsqaUBKTNV-1" source="D_atLNyOjQKJW8hiToG2-33" target="D_atLNyOjQKJW8hiToG2-7">
          <mxGeometry width="160" relative="1" as="geometry">
            <mxPoint x="1000" y="-270" as="sourcePoint" />
            <mxPoint x="1090" y="-290" as="targetPoint" />
            <Array as="points">
              <mxPoint x="870" y="-260" />
              <mxPoint x="1086" y="-260" />
            </Array>
          </mxGeometry>
        </mxCell>
        <mxCell id="CIufKCW6qUsmyP6EedrH-7" value="" style="endArrow=diamondThin;endFill=0;endSize=24;html=1;rounded=0;exitX=0.5;exitY=0;exitDx=0;exitDy=0;entryX=0.5;entryY=1;entryDx=0;entryDy=0;" edge="1" parent="WIyWlLk6GJQsqaUBKTNV-1" source="D_atLNyOjQKJW8hiToG2-343" target="D_atLNyOjQKJW8hiToG2-7">
          <mxGeometry width="160" relative="1" as="geometry">
            <mxPoint x="660" y="-240" as="sourcePoint" />
            <mxPoint x="1080" y="-290" as="targetPoint" />
            <Array as="points">
              <mxPoint x="520" y="-260" />
              <mxPoint x="1086" y="-260" />
            </Array>
          </mxGeometry>
        </mxCell>
        <mxCell id="CIufKCW6qUsmyP6EedrH-8" value="" style="endArrow=diamondThin;endFill=0;endSize=24;html=1;rounded=0;exitX=0.5;exitY=0;exitDx=0;exitDy=0;entryX=0.5;entryY=1;entryDx=0;entryDy=0;" edge="1" parent="WIyWlLk6GJQsqaUBKTNV-1" source="D_atLNyOjQKJW8hiToG2-30" target="D_atLNyOjQKJW8hiToG2-7">
          <mxGeometry width="160" relative="1" as="geometry">
            <mxPoint x="1080" y="-238" as="sourcePoint" />
            <mxPoint x="1646" y="-290" as="targetPoint" />
            <Array as="points">
              <mxPoint x="1360" y="-260" />
              <mxPoint x="1086" y="-260" />
            </Array>
          </mxGeometry>
        </mxCell>
        <mxCell id="CIufKCW6qUsmyP6EedrH-9" value="" style="endArrow=diamondThin;endFill=0;endSize=24;html=1;rounded=0;exitX=0.5;exitY=0;exitDx=0;exitDy=0;entryX=0.5;entryY=1;entryDx=0;entryDy=0;" edge="1" parent="WIyWlLk6GJQsqaUBKTNV-1" source="D_atLNyOjQKJW8hiToG2-340" target="D_atLNyOjQKJW8hiToG2-7">
          <mxGeometry width="160" relative="1" as="geometry">
            <mxPoint x="1603" y="-218" as="sourcePoint" />
            <mxPoint x="1330" y="-270" as="targetPoint" />
            <Array as="points">
              <mxPoint x="2000" y="-260" />
              <mxPoint x="1086" y="-260" />
            </Array>
          </mxGeometry>
        </mxCell>
        <mxCell id="CIufKCW6qUsmyP6EedrH-10" value="" style="endArrow=none;html=1;edgeStyle=orthogonalEdgeStyle;rounded=0;exitX=0.5;exitY=1;exitDx=0;exitDy=0;entryX=0.5;entryY=0;entryDx=0;entryDy=0;" edge="1" parent="WIyWlLk6GJQsqaUBKTNV-1" source="D_atLNyOjQKJW8hiToG2-340" target="D_atLNyOjQKJW8hiToG2-365">
          <mxGeometry relative="1" as="geometry">
            <mxPoint x="1840" y="43" as="sourcePoint" />
            <mxPoint x="2000" y="43" as="targetPoint" />
          </mxGeometry>
        </mxCell>
        <mxCell id="CIufKCW6qUsmyP6EedrH-14" value="" style="endArrow=none;html=1;edgeStyle=orthogonalEdgeStyle;rounded=0;exitX=0.5;exitY=1;exitDx=0;exitDy=0;entryX=0.5;entryY=0;entryDx=0;entryDy=0;" edge="1" parent="WIyWlLk6GJQsqaUBKTNV-1" source="D_atLNyOjQKJW8hiToG2-340" target="D_atLNyOjQKJW8hiToG2-389">
          <mxGeometry relative="1" as="geometry">
            <mxPoint x="2160" y="-150" as="sourcePoint" />
            <mxPoint x="2331" y="-106" as="targetPoint" />
          </mxGeometry>
        </mxCell>
        <mxCell id="CIufKCW6qUsmyP6EedrH-16" value="" style="endArrow=none;html=1;edgeStyle=orthogonalEdgeStyle;rounded=0;exitX=1;exitY=0.5;exitDx=0;exitDy=0;entryX=0;entryY=0.5;entryDx=0;entryDy=0;" edge="1" parent="WIyWlLk6GJQsqaUBKTNV-1" source="D_atLNyOjQKJW8hiToG2-8" target="D_atLNyOjQKJW8hiToG2-1">
          <mxGeometry relative="1" as="geometry">
            <mxPoint x="1210" y="-390" as="sourcePoint" />
            <mxPoint x="1381" y="-346" as="targetPoint" />
          </mxGeometry>
        </mxCell>
        <mxCell id="CIufKCW6qUsmyP6EedrH-17" value="" style="endArrow=none;html=1;edgeStyle=orthogonalEdgeStyle;rounded=0;exitX=1;exitY=0.5;exitDx=0;exitDy=0;entryX=0;entryY=0.5;entryDx=0;entryDy=0;" edge="1" parent="WIyWlLk6GJQsqaUBKTNV-1" source="D_atLNyOjQKJW8hiToG2-22" target="D_atLNyOjQKJW8hiToG2-8">
          <mxGeometry relative="1" as="geometry">
            <mxPoint x="1240" y="-600" as="sourcePoint" />
            <mxPoint x="1310" y="-600" as="targetPoint" />
          </mxGeometry>
        </mxCell>
        <mxCell id="CIufKCW6qUsmyP6EedrH-18" value="" style="endArrow=open;endSize=12;dashed=1;html=1;rounded=0;entryX=0.5;entryY=1;entryDx=0;entryDy=0;exitX=0.5;exitY=0;exitDx=0;exitDy=0;" edge="1" parent="WIyWlLk6GJQsqaUBKTNV-1" source="D_atLNyOjQKJW8hiToG2-233" target="D_atLNyOjQKJW8hiToG2-211">
          <mxGeometry width="160" relative="1" as="geometry">
            <mxPoint x="1140" y="1549" as="sourcePoint" />
            <mxPoint x="1300" y="1549" as="targetPoint" />
            <Array as="points">
              <mxPoint x="1126" y="1509" />
              <mxPoint x="1269" y="1509" />
            </Array>
          </mxGeometry>
        </mxCell>
        <mxCell id="CIufKCW6qUsmyP6EedrH-22" value="" style="endArrow=open;endSize=12;dashed=1;html=1;rounded=0;entryX=0.5;entryY=1;entryDx=0;entryDy=0;exitX=0.5;exitY=0;exitDx=0;exitDy=0;" edge="1" parent="WIyWlLk6GJQsqaUBKTNV-1" source="D_atLNyOjQKJW8hiToG2-204" target="D_atLNyOjQKJW8hiToG2-211">
          <mxGeometry width="160" relative="1" as="geometry">
            <mxPoint x="1260" y="1489" as="sourcePoint" />
            <mxPoint x="1403" y="1439" as="targetPoint" />
            <Array as="points">
              <mxPoint x="1440" y="1509" />
              <mxPoint x="1269" y="1509" />
            </Array>
          </mxGeometry>
        </mxCell>
        <mxCell id="CIufKCW6qUsmyP6EedrH-23" value="" style="endArrow=open;endSize=12;dashed=1;html=1;rounded=0;entryX=0.5;entryY=1;entryDx=0;entryDy=0;exitX=0.5;exitY=0;exitDx=0;exitDy=0;" edge="1" parent="WIyWlLk6GJQsqaUBKTNV-1" source="D_atLNyOjQKJW8hiToG2-224" target="D_atLNyOjQKJW8hiToG2-233">
          <mxGeometry width="160" relative="1" as="geometry">
            <mxPoint x="1230" y="1489" as="sourcePoint" />
            <mxPoint x="1373" y="1439" as="targetPoint" />
            <Array as="points" />
          </mxGeometry>
        </mxCell>
        <mxCell id="CIufKCW6qUsmyP6EedrH-24" value="" style="endArrow=open;endSize=12;dashed=1;html=1;rounded=0;entryX=0.5;entryY=1;entryDx=0;entryDy=0;exitX=0.5;exitY=0;exitDx=0;exitDy=0;" edge="1" parent="WIyWlLk6GJQsqaUBKTNV-1" source="D_atLNyOjQKJW8hiToG2-116" target="D_atLNyOjQKJW8hiToG2-133">
          <mxGeometry width="160" relative="1" as="geometry">
            <mxPoint x="1320" y="809" as="sourcePoint" />
            <mxPoint x="1480" y="809" as="targetPoint" />
          </mxGeometry>
        </mxCell>
        <mxCell id="CIufKCW6qUsmyP6EedrH-26" value="" style="endArrow=block;endSize=16;endFill=0;html=1;rounded=0;entryX=0.504;entryY=1.072;entryDx=0;entryDy=0;exitX=0.5;exitY=0;exitDx=0;exitDy=0;entryPerimeter=0;" edge="1" parent="WIyWlLk6GJQsqaUBKTNV-1" target="D_atLNyOjQKJW8hiToG2-125">
          <mxGeometry width="160" relative="1" as="geometry">
            <mxPoint x="896.4999999999998" y="1059" as="sourcePoint" />
            <mxPoint x="1360.5" y="1005" as="targetPoint" />
            <Array as="points">
              <mxPoint x="896" y="1029" />
              <mxPoint x="1360" y="1029" />
            </Array>
          </mxGeometry>
        </mxCell>
        <mxCell id="CIufKCW6qUsmyP6EedrH-27" value="" style="endArrow=block;endSize=16;endFill=0;html=1;rounded=0;exitX=0.5;exitY=0;exitDx=0;exitDy=0;entryX=0.5;entryY=1;entryDx=0;entryDy=0;" edge="1" parent="WIyWlLk6GJQsqaUBKTNV-1" source="D_atLNyOjQKJW8hiToG2-158" target="D_atLNyOjQKJW8hiToG2-116">
          <mxGeometry width="160" relative="1" as="geometry">
            <mxPoint x="1080.4999999999998" y="1103" as="sourcePoint" />
            <mxPoint x="1420" y="1019" as="targetPoint" />
            <Array as="points">
              <mxPoint x="1140" y="1029" />
              <mxPoint x="1360" y="1029" />
            </Array>
          </mxGeometry>
        </mxCell>
        <mxCell id="CIufKCW6qUsmyP6EedrH-28" value="" style="endArrow=block;endSize=16;endFill=0;html=1;rounded=0;exitX=0.5;exitY=0;exitDx=0;exitDy=0;entryX=0.502;entryY=1.032;entryDx=0;entryDy=0;entryPerimeter=0;" edge="1" parent="WIyWlLk6GJQsqaUBKTNV-1" source="D_atLNyOjQKJW8hiToG2-151" target="D_atLNyOjQKJW8hiToG2-125">
          <mxGeometry width="160" relative="1" as="geometry">
            <mxPoint x="1341" y="1073" as="sourcePoint" />
            <mxPoint x="1360" y="1009" as="targetPoint" />
            <Array as="points">
              <mxPoint x="1410" y="1029" />
              <mxPoint x="1360" y="1029" />
            </Array>
          </mxGeometry>
        </mxCell>
        <mxCell id="CIufKCW6qUsmyP6EedrH-29" value="" style="endArrow=block;endSize=16;endFill=0;html=1;rounded=0;exitX=0.5;exitY=0;exitDx=0;exitDy=0;entryX=0.5;entryY=1;entryDx=0;entryDy=0;" edge="1" parent="WIyWlLk6GJQsqaUBKTNV-1" source="D_atLNyOjQKJW8hiToG2-52" target="D_atLNyOjQKJW8hiToG2-116">
          <mxGeometry width="160" relative="1" as="geometry">
            <mxPoint x="1281" y="1073" as="sourcePoint" />
            <mxPoint x="1499" y="1019" as="targetPoint" />
            <Array as="points">
              <mxPoint x="1675" y="1029" />
              <mxPoint x="1360" y="1029" />
            </Array>
          </mxGeometry>
        </mxCell>
        <mxCell id="CIufKCW6qUsmyP6EedrH-30" value="" style="endArrow=none;html=1;edgeStyle=orthogonalEdgeStyle;rounded=0;entryX=0.5;entryY=1;entryDx=0;entryDy=0;exitX=0.5;exitY=0;exitDx=0;exitDy=0;" edge="1" parent="WIyWlLk6GJQsqaUBKTNV-1" source="D_atLNyOjQKJW8hiToG2-211" target="D_atLNyOjQKJW8hiToG2-151">
          <mxGeometry relative="1" as="geometry">
            <mxPoint x="1200" y="1299" as="sourcePoint" />
            <mxPoint x="1360" y="1299" as="targetPoint" />
            <Array as="points">
              <mxPoint x="1269" y="1309" />
              <mxPoint x="1410" y="1309" />
            </Array>
          </mxGeometry>
        </mxCell>
        <mxCell id="CIufKCW6qUsmyP6EedrH-33" value="" style="endArrow=none;html=1;edgeStyle=orthogonalEdgeStyle;rounded=0;entryX=0.5;entryY=1;entryDx=0;entryDy=0;exitX=0.5;exitY=0;exitDx=0;exitDy=0;" edge="1" parent="WIyWlLk6GJQsqaUBKTNV-1" source="D_atLNyOjQKJW8hiToG2-211" target="D_atLNyOjQKJW8hiToG2-52">
          <mxGeometry relative="1" as="geometry">
            <mxPoint x="1270" y="1289" as="sourcePoint" />
            <mxPoint x="1421" y="1289" as="targetPoint" />
            <Array as="points">
              <mxPoint x="1269" y="1309" />
              <mxPoint x="1675" y="1309" />
            </Array>
          </mxGeometry>
        </mxCell>
        <mxCell id="CIufKCW6qUsmyP6EedrH-34" value="" style="endArrow=none;html=1;edgeStyle=orthogonalEdgeStyle;rounded=0;entryX=0.5;entryY=1;entryDx=0;entryDy=0;exitX=0.5;exitY=0;exitDx=0;exitDy=0;" edge="1" parent="WIyWlLk6GJQsqaUBKTNV-1" source="D_atLNyOjQKJW8hiToG2-211" target="D_atLNyOjQKJW8hiToG2-158">
          <mxGeometry relative="1" as="geometry">
            <mxPoint x="1010" y="1392" as="sourcePoint" />
            <mxPoint x="1151" y="1269" as="targetPoint" />
            <Array as="points">
              <mxPoint x="1269" y="1309" />
              <mxPoint x="1141" y="1309" />
            </Array>
          </mxGeometry>
        </mxCell>
        <mxCell id="CIufKCW6qUsmyP6EedrH-35" value="" style="endArrow=none;html=1;edgeStyle=orthogonalEdgeStyle;rounded=0;entryX=0.5;entryY=1;entryDx=0;entryDy=0;exitX=0.5;exitY=0;exitDx=0;exitDy=0;" edge="1" parent="WIyWlLk6GJQsqaUBKTNV-1" source="D_atLNyOjQKJW8hiToG2-211" target="D_atLNyOjQKJW8hiToG2-60">
          <mxGeometry relative="1" as="geometry">
            <mxPoint x="1078" y="1432" as="sourcePoint" />
            <mxPoint x="950" y="1279" as="targetPoint" />
            <Array as="points">
              <mxPoint x="1269" y="1309" />
              <mxPoint x="895" y="1309" />
            </Array>
          </mxGeometry>
        </mxCell>
        <mxCell id="CIufKCW6qUsmyP6EedrH-38" value="" style="endArrow=block;endSize=16;endFill=0;html=1;rounded=0;exitX=0.5;exitY=0;exitDx=0;exitDy=0;entryX=0.5;entryY=1;entryDx=0;entryDy=0;" edge="1" parent="WIyWlLk6GJQsqaUBKTNV-1" source="D_atLNyOjQKJW8hiToG2-145" target="D_atLNyOjQKJW8hiToG2-126">
          <mxGeometry width="160" relative="1" as="geometry">
            <mxPoint x="1186" y="800" as="sourcePoint" />
            <mxPoint x="870" y="739" as="targetPoint" />
            <Array as="points">
              <mxPoint x="1050" y="759" />
              <mxPoint x="920" y="759" />
            </Array>
          </mxGeometry>
        </mxCell>
        <mxCell id="CIufKCW6qUsmyP6EedrH-39" value="" style="endArrow=block;endSize=16;endFill=0;html=1;rounded=0;exitX=0.5;exitY=0;exitDx=0;exitDy=0;entryX=0.5;entryY=1;entryDx=0;entryDy=0;" edge="1" parent="WIyWlLk6GJQsqaUBKTNV-1" source="D_atLNyOjQKJW8hiToG2-139" target="D_atLNyOjQKJW8hiToG2-126">
          <mxGeometry width="160" relative="1" as="geometry">
            <mxPoint x="1080" y="829" as="sourcePoint" />
            <mxPoint x="950" y="759" as="targetPoint" />
            <Array as="points">
              <mxPoint x="730" y="759" />
              <mxPoint x="920" y="759" />
            </Array>
          </mxGeometry>
        </mxCell>
        <mxCell id="CIufKCW6qUsmyP6EedrH-40" value="" style="endArrow=none;html=1;edgeStyle=orthogonalEdgeStyle;rounded=0;entryX=0.5;entryY=1;entryDx=0;entryDy=0;exitX=0.5;exitY=0;exitDx=0;exitDy=0;" edge="1" parent="WIyWlLk6GJQsqaUBKTNV-1" source="D_atLNyOjQKJW8hiToG2-322" target="D_atLNyOjQKJW8hiToG2-343">
          <mxGeometry relative="1" as="geometry">
            <mxPoint x="680" y="10" as="sourcePoint" />
            <mxPoint x="840" y="10" as="targetPoint" />
          </mxGeometry>
        </mxCell>
        <mxCell id="CIufKCW6qUsmyP6EedrH-43" value="" style="endArrow=open;endSize=12;dashed=1;html=1;rounded=0;entryX=0.5;entryY=1;entryDx=0;entryDy=0;exitX=0.5;exitY=0;exitDx=0;exitDy=0;" edge="1" parent="WIyWlLk6GJQsqaUBKTNV-1" source="D_atLNyOjQKJW8hiToG2-329" target="D_atLNyOjQKJW8hiToG2-346">
          <mxGeometry width="160" relative="1" as="geometry">
            <mxPoint x="540" y="180" as="sourcePoint" />
            <mxPoint x="700" y="180" as="targetPoint" />
          </mxGeometry>
        </mxCell>
        <mxCell id="CIufKCW6qUsmyP6EedrH-44" value="" style="endArrow=none;html=1;edgeStyle=orthogonalEdgeStyle;rounded=0;entryX=0.5;entryY=1;entryDx=0;entryDy=0;exitX=0.5;exitY=0;exitDx=0;exitDy=0;" edge="1" parent="WIyWlLk6GJQsqaUBKTNV-1" source="D_atLNyOjQKJW8hiToG2-181" target="D_atLNyOjQKJW8hiToG2-329">
          <mxGeometry relative="1" as="geometry">
            <mxPoint x="540" y="370" as="sourcePoint" />
            <mxPoint x="700" y="370" as="targetPoint" />
          </mxGeometry>
        </mxCell>
        <mxCell id="CIufKCW6qUsmyP6EedrH-47" value="" style="endArrow=block;endSize=16;endFill=0;html=1;rounded=0;entryX=0.5;entryY=1;entryDx=0;entryDy=0;exitX=0.5;exitY=0;exitDx=0;exitDy=0;" edge="1" parent="WIyWlLk6GJQsqaUBKTNV-1" source="D_atLNyOjQKJW8hiToG2-346" target="D_atLNyOjQKJW8hiToG2-322">
          <mxGeometry width="160" relative="1" as="geometry">
            <mxPoint x="590" y="180" as="sourcePoint" />
            <mxPoint x="750" y="180" as="targetPoint" />
            <Array as="points">
              <mxPoint x="365" y="50" />
              <mxPoint x="520" y="50" />
            </Array>
          </mxGeometry>
        </mxCell>
        <mxCell id="CIufKCW6qUsmyP6EedrH-49" value="" style="endArrow=block;endSize=16;endFill=0;html=1;rounded=0;entryX=0.5;entryY=1;entryDx=0;entryDy=0;exitX=0.5;exitY=0;exitDx=0;exitDy=0;" edge="1" parent="WIyWlLk6GJQsqaUBKTNV-1" source="D_atLNyOjQKJW8hiToG2-316" target="D_atLNyOjQKJW8hiToG2-322">
          <mxGeometry width="160" relative="1" as="geometry">
            <mxPoint x="480" y="112" as="sourcePoint" />
            <mxPoint x="635" y="50" as="targetPoint" />
            <Array as="points">
              <mxPoint x="695" y="50" />
              <mxPoint x="520" y="50" />
            </Array>
          </mxGeometry>
        </mxCell>
        <mxCell id="CIufKCW6qUsmyP6EedrH-50" value="" style="endArrow=none;html=1;edgeStyle=orthogonalEdgeStyle;rounded=0;exitX=1;exitY=0.5;exitDx=0;exitDy=0;entryX=0;entryY=0.5;entryDx=0;entryDy=0;" edge="1" parent="WIyWlLk6GJQsqaUBKTNV-1" source="D_atLNyOjQKJW8hiToG2-351" target="D_atLNyOjQKJW8hiToG2-367">
          <mxGeometry relative="1" as="geometry">
            <mxPoint x="2170" y="-130" as="sourcePoint" />
            <mxPoint x="2050" y="-40" as="targetPoint" />
            <Array as="points">
              <mxPoint x="1990" y="-50" />
              <mxPoint x="1990" y="-50" />
            </Array>
          </mxGeometry>
        </mxCell>
        <mxCell id="CIufKCW6qUsmyP6EedrH-51" value="" style="endArrow=open;endSize=12;dashed=1;html=1;rounded=0;entryX=0.5;entryY=1;entryDx=0;entryDy=0;exitX=0.5;exitY=0;exitDx=0;exitDy=0;" edge="1" parent="WIyWlLk6GJQsqaUBKTNV-1" source="D_atLNyOjQKJW8hiToG2-358" target="D_atLNyOjQKJW8hiToG2-365">
          <mxGeometry width="160" relative="1" as="geometry">
            <mxPoint x="1990" y="94" as="sourcePoint" />
            <mxPoint x="1990" y="50" as="targetPoint" />
          </mxGeometry>
        </mxCell>
        <mxCell id="CIufKCW6qUsmyP6EedrH-52" value="" style="endArrow=open;endSize=12;dashed=1;html=1;rounded=0;entryX=0.5;entryY=1;entryDx=0;entryDy=0;" edge="1" parent="WIyWlLk6GJQsqaUBKTNV-1" target="D_atLNyOjQKJW8hiToG2-267">
          <mxGeometry width="160" relative="1" as="geometry">
            <mxPoint x="1170" y="499" as="sourcePoint" />
            <mxPoint x="1350" y="709" as="targetPoint" />
            <Array as="points">
              <mxPoint x="1310" y="499" />
            </Array>
          </mxGeometry>
        </mxCell>
        <mxCell id="CIufKCW6qUsmyP6EedrH-53" value="" style="endArrow=open;endSize=12;dashed=1;html=1;rounded=0;entryX=0.5;entryY=1;entryDx=0;entryDy=0;" edge="1" parent="WIyWlLk6GJQsqaUBKTNV-1" target="D_atLNyOjQKJW8hiToG2-275">
          <mxGeometry width="160" relative="1" as="geometry">
            <mxPoint x="1180" y="499" as="sourcePoint" />
            <mxPoint x="1260" y="519" as="targetPoint" />
            <Array as="points">
              <mxPoint x="1040" y="499" />
            </Array>
          </mxGeometry>
        </mxCell>
        <mxCell id="CIufKCW6qUsmyP6EedrH-54" value="" style="endArrow=none;html=1;edgeStyle=orthogonalEdgeStyle;rounded=0;entryX=0.5;entryY=0;entryDx=0;entryDy=0;dashed=1;" edge="1" parent="WIyWlLk6GJQsqaUBKTNV-1" target="D_atLNyOjQKJW8hiToG2-133">
          <mxGeometry relative="1" as="geometry">
            <mxPoint x="1170" y="499" as="sourcePoint" />
            <mxPoint x="1190" y="529" as="targetPoint" />
            <Array as="points">
              <mxPoint x="1170" y="519" />
              <mxPoint x="1359" y="519" />
            </Array>
          </mxGeometry>
        </mxCell>
        <mxCell id="CIufKCW6qUsmyP6EedrH-55" value="" style="endArrow=none;html=1;edgeStyle=orthogonalEdgeStyle;rounded=0;entryX=0.5;entryY=0;entryDx=0;entryDy=0;dashed=1;" edge="1" parent="WIyWlLk6GJQsqaUBKTNV-1" target="D_atLNyOjQKJW8hiToG2-126">
          <mxGeometry relative="1" as="geometry">
            <mxPoint x="1170" y="499" as="sourcePoint" />
            <mxPoint x="1279" y="599" as="targetPoint" />
            <Array as="points">
              <mxPoint x="1170" y="519" />
              <mxPoint x="920" y="519" />
            </Array>
          </mxGeometry>
        </mxCell>
        <mxCell id="CIufKCW6qUsmyP6EedrH-56" value="" style="endArrow=open;endSize=12;dashed=1;html=1;rounded=0;entryX=0.5;entryY=1;entryDx=0;entryDy=0;exitX=0.5;exitY=0;exitDx=0;exitDy=0;" edge="1" parent="WIyWlLk6GJQsqaUBKTNV-1" source="D_atLNyOjQKJW8hiToG2-275" target="D_atLNyOjQKJW8hiToG2-66">
          <mxGeometry width="160" relative="1" as="geometry">
            <mxPoint x="930" y="277" as="sourcePoint" />
            <mxPoint x="1070" y="249" as="targetPoint" />
            <Array as="points">
              <mxPoint x="1040" y="299" />
              <mxPoint x="1170" y="299" />
            </Array>
          </mxGeometry>
        </mxCell>
        <mxCell id="CIufKCW6qUsmyP6EedrH-57" value="" style="endArrow=open;endSize=12;dashed=1;html=1;rounded=0;entryX=0.5;entryY=1;entryDx=0;entryDy=0;exitX=0.5;exitY=0;exitDx=0;exitDy=0;" edge="1" parent="WIyWlLk6GJQsqaUBKTNV-1" source="D_atLNyOjQKJW8hiToG2-267" target="D_atLNyOjQKJW8hiToG2-66">
          <mxGeometry width="160" relative="1" as="geometry">
            <mxPoint x="1220" y="343" as="sourcePoint" />
            <mxPoint x="1350" y="299" as="targetPoint" />
            <Array as="points">
              <mxPoint x="1310" y="299" />
              <mxPoint x="1170" y="299" />
            </Array>
          </mxGeometry>
        </mxCell>
        <mxCell id="CIufKCW6qUsmyP6EedrH-58" value="" style="endArrow=none;html=1;edgeStyle=orthogonalEdgeStyle;rounded=0;exitX=0.5;exitY=1;exitDx=0;exitDy=0;entryX=0.5;entryY=0;entryDx=0;entryDy=0;" edge="1" parent="WIyWlLk6GJQsqaUBKTNV-1" source="D_atLNyOjQKJW8hiToG2-30" target="D_atLNyOjQKJW8hiToG2-50">
          <mxGeometry relative="1" as="geometry">
            <mxPoint x="1270" y="-120" as="sourcePoint" />
            <mxPoint x="1320" y="-110" as="targetPoint" />
            <Array as="points">
              <mxPoint x="1359" y="-140" />
              <mxPoint x="1165" y="-140" />
            </Array>
          </mxGeometry>
        </mxCell>
        <mxCell id="CIufKCW6qUsmyP6EedrH-59" value="" style="endArrow=none;html=1;edgeStyle=orthogonalEdgeStyle;rounded=0;entryX=0.5;entryY=0;entryDx=0;entryDy=0;exitX=0.5;exitY=1;exitDx=0;exitDy=0;" edge="1" parent="WIyWlLk6GJQsqaUBKTNV-1" source="D_atLNyOjQKJW8hiToG2-30" target="D_atLNyOjQKJW8hiToG2-84">
          <mxGeometry relative="1" as="geometry">
            <mxPoint x="1360" y="-150" as="sourcePoint" />
            <mxPoint x="1351" y="-109" as="targetPoint" />
            <Array as="points">
              <mxPoint x="1359" y="-140" />
              <mxPoint x="1574" y="-140" />
            </Array>
          </mxGeometry>
        </mxCell>
        <mxCell id="CIufKCW6qUsmyP6EedrH-60" value="" style="endArrow=block;endSize=16;endFill=0;html=1;rounded=0;entryX=0.5;entryY=1;entryDx=0;entryDy=0;exitX=0.5;exitY=0;exitDx=0;exitDy=0;" edge="1" parent="WIyWlLk6GJQsqaUBKTNV-1" source="D_atLNyOjQKJW8hiToG2-40" target="D_atLNyOjQKJW8hiToG2-50">
          <mxGeometry width="160" relative="1" as="geometry">
            <mxPoint x="1245" y="-8" as="sourcePoint" />
            <mxPoint x="1070" y="-70" as="targetPoint" />
            <Array as="points">
              <mxPoint x="1300" y="-50" />
              <mxPoint x="1166" y="-50" />
            </Array>
          </mxGeometry>
        </mxCell>
        <mxCell id="CIufKCW6qUsmyP6EedrH-61" value="" style="endArrow=block;endSize=16;endFill=0;html=1;rounded=0;entryX=0.5;entryY=1;entryDx=0;entryDy=0;exitX=0.5;exitY=0;exitDx=0;exitDy=0;" edge="1" parent="WIyWlLk6GJQsqaUBKTNV-1" source="D_atLNyOjQKJW8hiToG2-45" target="D_atLNyOjQKJW8hiToG2-50">
          <mxGeometry width="160" relative="1" as="geometry">
            <mxPoint x="1304" y="-19" as="sourcePoint" />
            <mxPoint x="1170" y="-60" as="targetPoint" />
            <Array as="points">
              <mxPoint x="1030" y="-50" />
              <mxPoint x="1166" y="-50" />
            </Array>
          </mxGeometry>
        </mxCell>
        <mxCell id="CIufKCW6qUsmyP6EedrH-62" value="" style="endArrow=none;html=1;edgeStyle=orthogonalEdgeStyle;rounded=0;exitX=0.5;exitY=1;exitDx=0;exitDy=0;entryX=0.5;entryY=0;entryDx=0;entryDy=0;" edge="1" parent="WIyWlLk6GJQsqaUBKTNV-1" source="D_atLNyOjQKJW8hiToG2-45" target="D_atLNyOjQKJW8hiToG2-66">
          <mxGeometry relative="1" as="geometry">
            <mxPoint x="1020" y="110" as="sourcePoint" />
            <mxPoint x="1050" y="190" as="targetPoint" />
            <Array as="points">
              <mxPoint x="1030" y="120" />
              <mxPoint x="1170" y="120" />
            </Array>
          </mxGeometry>
        </mxCell>
        <mxCell id="CIufKCW6qUsmyP6EedrH-63" value="" style="endArrow=none;html=1;edgeStyle=orthogonalEdgeStyle;rounded=0;exitX=0.5;exitY=1;exitDx=0;exitDy=0;entryX=0.5;entryY=0;entryDx=0;entryDy=0;" edge="1" parent="WIyWlLk6GJQsqaUBKTNV-1" source="D_atLNyOjQKJW8hiToG2-40" target="D_atLNyOjQKJW8hiToG2-66">
          <mxGeometry relative="1" as="geometry">
            <mxPoint x="1270" y="110" as="sourcePoint" />
            <mxPoint x="1410" y="154" as="targetPoint" />
            <Array as="points">
              <mxPoint x="1300" y="120" />
              <mxPoint x="1170" y="120" />
            </Array>
          </mxGeometry>
        </mxCell>
      </root>
    </mxGraphModel>
  </diagram>
</mxfile>
